<?xml version="1.0" encoding="utf-8"?>
<svg xmlns="http://www.w3.org/2000/svg" version="1.1" width="520" height="520">
<rect width="520" height="520" x="0" y="0" fill="white" />
<line x1="10" y1="10" x2="10" y2="60" stroke="black" stroke-width="3" />
<line x1="10" y1="60" x2="10" y2="110" stroke="black" stroke-width="3" />
<line x1="10" y1="110" x2="10" y2="160" stroke="black" stroke-width="3" />
<line x1="10" y1="160" x2="10" y2="210" stroke="black" stroke-width="3" />
<line x1="10" y1="210" x2="10" y2="260" stroke="black" stroke-width="3" />
<line x1="10" y1="260" x2="10" y2="310" stroke="black" stroke-width="3" />
<line x1="10" y1="310" x2="10" y2="360" stroke="black" stroke-width="3" />
<line x1="10" y1="360" x2="10" y2="410" stroke="black" stroke-width="3" />
<line x1="10" y1="410" x2="10" y2="460" stroke="black" stroke-width="3" />
<line x1="10" y1="460" x2="10" y2="510" stroke="black" stroke-width="3" />
<line x1="60" y1="110" x2="60" y2="160" stroke="black" stroke-width="3" />
<line x1="60" y1="260" x2="60" y2="310" stroke="black" stroke-width="3" />
<line x1="60" y1="410" x2="60" y2="460" stroke="black" stroke-width="3" />
<line x1="110" y1="60" x2="110" y2="110" stroke="black" stroke-width="3" />
<line x1="110" y1="210" x2="110" y2="260" stroke="black" stroke-width="3" />
<line x1="110" y1="310" x2="110" y2="360" stroke="black" stroke-width="3" />
<line x1="160" y1="60" x2="160" y2="110" stroke="black" stroke-width="3" />
<line x1="160" y1="160" x2="160" y2="210" stroke="black" stroke-width="3" />
<line x1="160" y1="210" x2="160" y2="260" stroke="black" stroke-width="3" />
<line x1="160" y1="310" x2="160" y2="360" stroke="black" stroke-width="3" />
<line x1="160" y1="360" x2="160" y2="410" stroke="black" stroke-width="3" />
<line x1="210" y1="110" x2="210" y2="160" stroke="black" stroke-width="3" />
<line x1="210" y1="260" x2="210" y2="310" stroke="black" stroke-width="3" />
<line x1="210" y1="410" x2="210" y2="460" stroke="black" stroke-width="3" />
<line x1="210" y1="460" x2="210" y2="510" stroke="black" stroke-width="3" />
<line x1="260" y1="110" x2="260" y2="160" stroke="black" stroke-width="3" />
<line x1="260" y1="260" x2="260" y2="310" stroke="black" stroke-width="3" />
<line x1="260" y1="310" x2="260" y2="360" stroke="black" stroke-width="3" />
<line x1="260" y1="410" x2="260" y2="460" stroke="black" stroke-width="3" />
<line x1="260" y1="460" x2="260" y2="510" stroke="black" stroke-width="3" />
<line x1="310" y1="60" x2="310" y2="110" stroke="black" stroke-width="3" />
<line x1="310" y1="360" x2="310" y2="410" stroke="black" stroke-width="3" />
<line x1="310" y1="410" x2="310" y2="460" stroke="black" stroke-width="3" />
<line x1="360" y1="110" x2="360" y2="160" stroke="black" stroke-width="3" />
<line x1="360" y1="310" x2="360" y2="360" stroke="black" stroke-width="3" />
<line x1="360" y1="360" x2="360" y2="410" stroke="black" stroke-width="3" />
<line x1="360" y1="410" x2="360" y2="460" stroke="black" stroke-width="3" />
<line x1="410" y1="60" x2="410" y2="110" stroke="black" stroke-width="3" />
<line x1="410" y1="160" x2="410" y2="210" stroke="black" stroke-width="3" />
<line x1="410" y1="260" x2="410" y2="310" stroke="black" stroke-width="3" />
<line x1="460" y1="160" x2="460" y2="210" stroke="black" stroke-width="3" />
<line x1="460" y1="210" x2="460" y2="260" stroke="black" stroke-width="3" />
<line x1="460" y1="310" x2="460" y2="360" stroke="black" stroke-width="3" />
<line x1="460" y1="410" x2="460" y2="460" stroke="black" stroke-width="3" />
<line x1="510" y1="10" x2="510" y2="60" stroke="black" stroke-width="3" />
<line x1="510" y1="60" x2="510" y2="110" stroke="black" stroke-width="3" />
<line x1="510" y1="110" x2="510" y2="160" stroke="black" stroke-width="3" />
<line x1="510" y1="160" x2="510" y2="210" stroke="black" stroke-width="3" />
<line x1="510" y1="210" x2="510" y2="260" stroke="black" stroke-width="3" />
<line x1="510" y1="260" x2="510" y2="310" stroke="black" stroke-width="3" />
<line x1="510" y1="310" x2="510" y2="360" stroke="black" stroke-width="3" />
<line x1="510" y1="360" x2="510" y2="410" stroke="black" stroke-width="3" />
<line x1="510" y1="410" x2="510" y2="460" stroke="black" stroke-width="3" />
<line x1="510" y1="460" x2="510" y2="510" stroke="black" stroke-width="3" />
<line x1="10" y1="10" x2="60" y2="10" stroke="black" stroke-width="3" />
<line x1="10" y1="60" x2="60" y2="60" stroke="black" stroke-width="3" />
<line x1="10" y1="110" x2="60" y2="110" stroke="black" stroke-width="3" />
<line x1="10" y1="360" x2="60" y2="360" stroke="black" stroke-width="3" />
<line x1="10" y1="410" x2="60" y2="410" stroke="black" stroke-width="3" />
<line x1="10" y1="510" x2="60" y2="510" stroke="black" stroke-width="3" />
<line x1="60" y1="10" x2="110" y2="10" stroke="black" stroke-width="3" />
<line x1="60" y1="60" x2="110" y2="60" stroke="black" stroke-width="3" />
<line x1="60" y1="210" x2="110" y2="210" stroke="black" stroke-width="3" />
<line x1="60" y1="310" x2="110" y2="310" stroke="black" stroke-width="3" />
<line x1="60" y1="360" x2="110" y2="360" stroke="black" stroke-width="3" />
<line x1="60" y1="410" x2="110" y2="410" stroke="black" stroke-width="3" />
<line x1="60" y1="460" x2="110" y2="460" stroke="black" stroke-width="3" />
<line x1="60" y1="510" x2="110" y2="510" stroke="black" stroke-width="3" />
<line x1="110" y1="10" x2="160" y2="10" stroke="black" stroke-width="3" />
<line x1="110" y1="110" x2="160" y2="110" stroke="black" stroke-width="3" />
<line x1="110" y1="160" x2="160" y2="160" stroke="black" stroke-width="3" />
<line x1="110" y1="260" x2="160" y2="260" stroke="black" stroke-width="3" />
<line x1="110" y1="310" x2="160" y2="310" stroke="black" stroke-width="3" />
<line x1="110" y1="510" x2="160" y2="510" stroke="black" stroke-width="3" />
<line x1="160" y1="10" x2="210" y2="10" stroke="black" stroke-width="3" />
<line x1="160" y1="160" x2="210" y2="160" stroke="black" stroke-width="3" />
<line x1="160" y1="210" x2="210" y2="210" stroke="black" stroke-width="3" />
<line x1="160" y1="260" x2="210" y2="260" stroke="black" stroke-width="3" />
<line x1="160" y1="460" x2="210" y2="460" stroke="black" stroke-width="3" />
<line x1="160" y1="510" x2="210" y2="510" stroke="black" stroke-width="3" />
<line x1="210" y1="10" x2="260" y2="10" stroke="black" stroke-width="3" />
<line x1="210" y1="60" x2="260" y2="60" stroke="black" stroke-width="3" />
<line x1="210" y1="110" x2="260" y2="110" stroke="black" stroke-width="3" />
<line x1="210" y1="210" x2="260" y2="210" stroke="black" stroke-width="3" />
<line x1="210" y1="260" x2="260" y2="260" stroke="black" stroke-width="3" />
<line x1="210" y1="360" x2="260" y2="360" stroke="black" stroke-width="3" />
<line x1="210" y1="510" x2="260" y2="510" stroke="black" stroke-width="3" />
<line x1="260" y1="10" x2="310" y2="10" stroke="black" stroke-width="3" />
<line x1="260" y1="60" x2="310" y2="60" stroke="black" stroke-width="3" />
<line x1="260" y1="110" x2="310" y2="110" stroke="black" stroke-width="3" />
<line x1="260" y1="160" x2="310" y2="160" stroke="black" stroke-width="3" />
<line x1="260" y1="260" x2="310" y2="260" stroke="black" stroke-width="3" />
<line x1="260" y1="310" x2="310" y2="310" stroke="black" stroke-width="3" />
<line x1="260" y1="410" x2="310" y2="410" stroke="black" stroke-width="3" />
<line x1="260" y1="510" x2="310" y2="510" stroke="black" stroke-width="3" />
<line x1="310" y1="10" x2="360" y2="10" stroke="black" stroke-width="3" />
<line x1="310" y1="160" x2="360" y2="160" stroke="black" stroke-width="3" />
<line x1="310" y1="210" x2="360" y2="210" stroke="black" stroke-width="3" />
<line x1="310" y1="260" x2="360" y2="260" stroke="black" stroke-width="3" />
<line x1="310" y1="310" x2="360" y2="310" stroke="black" stroke-width="3" />
<line x1="310" y1="510" x2="360" y2="510" stroke="black" stroke-width="3" />
<line x1="360" y1="10" x2="410" y2="10" stroke="black" stroke-width="3" />
<line x1="360" y1="60" x2="410" y2="60" stroke="black" stroke-width="3" />
<line x1="360" y1="110" x2="410" y2="110" stroke="black" stroke-width="3" />
<line x1="360" y1="160" x2="410" y2="160" stroke="black" stroke-width="3" />
<line x1="360" y1="210" x2="410" y2="210" stroke="black" stroke-width="3" />
<line x1="360" y1="360" x2="410" y2="360" stroke="black" stroke-width="3" />
<line x1="360" y1="460" x2="410" y2="460" stroke="black" stroke-width="3" />
<line x1="360" y1="510" x2="410" y2="510" stroke="black" stroke-width="3" />
<line x1="410" y1="10" x2="460" y2="10" stroke="black" stroke-width="3" />
<line x1="410" y1="110" x2="460" y2="110" stroke="black" stroke-width="3" />
<line x1="410" y1="310" x2="460" y2="310" stroke="black" stroke-width="3" />
<line x1="410" y1="410" x2="460" y2="410" stroke="black" stroke-width="3" />
<line x1="410" y1="510" x2="460" y2="510" stroke="black" stroke-width="3" />
<line x1="460" y1="10" x2="510" y2="10" stroke="black" stroke-width="3" />
<line x1="460" y1="60" x2="510" y2="60" stroke="black" stroke-width="3" />
<line x1="460" y1="110" x2="510" y2="110" stroke="black" stroke-width="3" />
<line x1="460" y1="210" x2="510" y2="210" stroke="black" stroke-width="3" />
<line x1="460" y1="310" x2="510" y2="310" stroke="black" stroke-width="3" />
<line x1="460" y1="410" x2="510" y2="410" stroke="black" stroke-width="3" />
<line x1="460" y1="510" x2="510" y2="510" stroke="black" stroke-width="3" />
<line x1="35" y1="35" x2="85" y2="35" stroke="red" stroke-width="3" />
<line x1="85" y1="35" x2="135" y2="35" stroke="red" stroke-width="3" />
<line x1="135" y1="35" x2="185" y2="35" stroke="red" stroke-width="3" />
<line x1="185" y1="85" x2="185" y2="35" stroke="red" stroke-width="3" />
<line x1="185" y1="135" x2="185" y2="85" stroke="red" stroke-width="3" />
<line x1="185" y1="135" x2="135" y2="135" stroke="red" stroke-width="3" />
<line x1="135" y1="135" x2="85" y2="135" stroke="red" stroke-width="3" />
<line x1="85" y1="185" x2="85" y2="135" stroke="red" stroke-width="3" />
<line x1="85" y1="185" x2="35" y2="185" stroke="red" stroke-width="3" />
<line x1="35" y1="235" x2="35" y2="185" stroke="red" stroke-width="3" />
<line x1="35" y1="235" x2="85" y2="235" stroke="red" stroke-width="3" />
<line x1="85" y1="285" x2="85" y2="235" stroke="red" stroke-width="3" />
<line x1="85" y1="285" x2="135" y2="285" stroke="red" stroke-width="3" />
<line x1="135" y1="285" x2="185" y2="285" stroke="red" stroke-width="3" />
<line x1="185" y1="335" x2="185" y2="285" stroke="red" stroke-width="3" />
<line x1="185" y1="385" x2="185" y2="335" stroke="red" stroke-width="3" />
<line x1="185" y1="435" x2="185" y2="385" stroke="red" stroke-width="3" />
<line x1="185" y1="435" x2="135" y2="435" stroke="red" stroke-width="3" />
<line x1="135" y1="485" x2="135" y2="435" stroke="red" stroke-width="3" />
<line x1="135" y1="485" x2="85" y2="485" stroke="red" stroke-width="3" />
<line x1="85" y1="485" x2="35" y2="485" stroke="red" stroke-width="3" />
</svg>
