<?xml version="1.0" encoding="UTF-8"?><svg version="1.1" width="260px" height="202px" viewBox="0 0 260.0 202.0" xmlns="http://www.w3.org/2000/svg" xmlns:xlink="http://www.w3.org/1999/xlink"><defs><clipPath id="i0"><path d="M260,0 L260,202 L0,202 L0,0 L260,0 Z"></path></clipPath><clipPath id="i1"><path d="M42,0 L42,235 L0,235 L0,0 L42,0 Z"></path></clipPath><linearGradient id="i2" x1="2.07289823px" y1="0px" x2="42px" y2="0px" gradientUnits="userSpaceOnUse"><stop stop-color="#E1D9CA" offset="0%"></stop><stop stop-color="#97938B" offset="100%"></stop></linearGradient><clipPath id="i3"><path d="M180,0 L180,235 L0,235 L0,0 L180,0 Z"></path></clipPath><clipPath id="i4"><path d="M105,0 L105,235 L0,235 L0,0 L105,0 Z"></path></clipPath><clipPath id="i5"><path d="M85,0 L85,7.00830368 L0,7.00830368 L0,0 L85,0 Z"></path></clipPath><clipPath id="i6"><path d="M76,0 L76,7.00830368 L0,7.00830368 L0,0 L76,0 Z"></path></clipPath><clipPath id="i7"><path d="M1.5,0 C2.32842712,0 3,0.671572875 3,1.5 C3,2.32842712 2.32842712,3 1.5,3 C0.671572875,3 0,2.32842712 0,1.5 C0,0.671572875 0.671572875,0 1.5,0 Z"></path></clipPath><clipPath id="i8"><path d="M75.9026988,0 L75.9026988,7.00830368 L0,7.00830368 L0,0 L75.9026988,0 Z"></path></clipPath><clipPath id="i9"><path d="M41.7789642,0 L41.7789642,7.00830368 L0,7.00830368 L0,0 L41.7789642,0 Z"></path></clipPath><clipPath id="i10"><path d="M76,0 L76,7.00830368 L0,7.00830368 L0,0 L76,0 Z"></path></clipPath><clipPath id="i11"><path d="M85,0 L85,7.00830368 L0,7.00830368 L0,0 L85,0 Z"></path></clipPath><clipPath id="i12"><path d="M76,0 L76,7.00830368 L0,7.00830368 L0,0 L76,0 Z"></path></clipPath><clipPath id="i13"><path d="M85,0 L85,7.00830368 L0,7.00830368 L0,0 L85,0 Z"></path></clipPath><clipPath id="i14"><path d="M76,0 L76,7.00830368 L0,7.00830368 L0,0 L76,0 Z"></path></clipPath><clipPath id="i15"><path d="M43.0694807,0 L43.0694807,7.00830368 L0,7.00830368 L0,0 L43.0694807,0 Z"></path></clipPath><clipPath id="i16"><path d="M43.0694807,0 L43.0694807,7.00830368 L0,7.00830368 L0,0 L43.0694807,0 Z"></path></clipPath><clipPath id="i17"><path d="M85,0 L85,2.5029656 L0,2.5029656 L0,0 L85,0 Z"></path></clipPath><clipPath id="i18"><path d="M6.396,0 L6.396,1.572 L1.896,1.572 L1.896,3.396 L5.94,3.396 L5.94,4.968 L1.896,4.968 L1.896,6.828 L6.528,6.828 L6.528,8.4 L0,8.4 L0,0 L6.396,0 Z"></path></clipPath><clipPath id="i19"><path d="M2.412,0 L4.164,2.568 L5.928,0 L8.172,0 L5.376,4.02 L8.412,8.4 L6.144,8.4 L4.164,5.604 L2.22,8.4 L0,8.4 L3.012,4.104 L0.204,0 L2.412,0 Z"></path></clipPath><clipPath id="i20"><path d="M3.564,0 C5.7,0 6.924,1.056 6.924,2.916 C6.924,4.872 5.7,6 3.564,6 L1.896,6 L1.896,8.4 L0,8.4 L0,0 Z M3.468,1.572 L1.896,1.572 L1.896,4.416 L3.468,4.416 C4.524,4.416 5.124,3.936 5.124,2.976 C5.124,2.04 4.524,1.572 3.468,1.572 Z"></path></clipPath><clipPath id="i21"><path d="M6.396,0 L6.396,1.572 L1.896,1.572 L1.896,3.396 L5.94,3.396 L5.94,4.968 L1.896,4.968 L1.896,6.828 L6.528,6.828 L6.528,8.4 L0,8.4 L0,0 L6.396,0 Z"></path></clipPath><clipPath id="i22"><path d="M3.648,0 C5.844,0 7.092,1.056 7.092,2.916 C7.092,4.212 6.54,5.148 5.52,5.628 L7.308,8.4 L5.16,8.4 L3.828,6 L1.896,6 L1.896,8.4 L0,8.4 L0,0 Z M3.648,1.572 L1.896,1.572 L1.896,4.416 L3.648,4.416 C4.692,4.416 5.292,3.936 5.292,2.976 C5.292,2.04 4.692,1.572 3.648,1.572 Z"></path></clipPath><clipPath id="i23"><path d="M3.888,0 C5.124,0 6.372,0.384 7.248,0.948 L6.42,2.688 C5.532,2.184 4.404,1.788 3.708,1.788 C3.18,1.788 2.832,1.98 2.832,2.364 C2.832,3.756 7.26,2.964 7.26,5.988 C7.26,7.704 5.748,8.58 3.876,8.58 C2.472,8.58 1.008,8.064 0,7.236 L0.852,5.52 C1.716,6.264 3.024,6.792 3.9,6.792 C4.548,6.792 4.956,6.552 4.956,6.108 C4.956,4.68 0.528,5.544 0.528,2.568 C0.528,0.996 1.86,0 3.888,0 Z"></path></clipPath><clipPath id="i24"><path d="M3.432,0 C5.22,0 6.264,0.864 6.276,2.352 L6.276,6.576 L4.176,6.576 L4.176,5.844 C3.756,6.384 3.096,6.672 2.22,6.672 C0.828,6.672 0,5.832 0,4.644 C0,3.408 0.876,2.7 2.484,2.676 L4.176,2.676 L4.176,2.604 C4.176,1.992 3.756,1.632 2.94,1.632 C2.4,1.632 1.692,1.812 0.996,2.148 L0.408,0.708 C1.428,0.252 2.364,0 3.432,0 Z M4.176,3.816 L2.904,3.816 C2.304,3.816 2.004,4.032 2.004,4.488 C2.004,4.932 2.328,5.22 2.88,5.22 C3.516,5.22 4.044,4.872 4.176,4.38 L4.176,3.816 Z"></path></clipPath><clipPath id="i25"><path d="M2.196,0 L3.552,4.512 L4.92,0 L7.056,0 L4.62,6.492 L2.424,6.492 L0,0 L2.196,0 Z"></path></clipPath><clipPath id="i26"><path d="M3.54,0 C5.676,0 7.092,1.32 7.092,3.312 C7.092,5.316 5.676,6.636 3.54,6.636 C1.404,6.636 0,5.316 0,3.312 C0,1.32 1.404,0 3.54,0 Z M3.54,1.728 C2.712,1.728 2.148,2.376 2.148,3.336 C2.148,4.308 2.712,4.956 3.54,4.956 C4.38,4.956 4.944,4.308 4.944,3.336 C4.944,2.376 4.38,1.728 3.54,1.728 Z"></path></clipPath><clipPath id="i27"><path d="M2.124,2.808 L2.124,9.3 L0,9.3 L0,2.808 L2.124,2.808 Z M1.068,0 C1.632,0 2.04,0.408 2.04,0.984 C2.04,1.548 1.632,1.956 1.068,1.956 C0.504,1.956 0.096,1.548 0.096,0.984 C0.096,0.408 0.504,0 1.068,0 Z"></path></clipPath><clipPath id="i28"><path d="M4.224,0 L4.224,1.956 C3.036,1.836 2.244,2.364 2.136,3.264 L2.136,6.576 L0,6.576 L0,0.084 L2.136,0.084 L2.136,1.164 C2.58,0.42 3.312,0 4.224,0 Z"></path></clipPath><clipPath id="i29"><path d="M3.18,0 L3.18,1.368 L0,1.368 L0,0 L3.18,0 Z"></path></clipPath><clipPath id="i30"><path d="M3.372,0.000132429368 C4.02,0.000132429368 4.728,0.168132429 5.22,0.456132429 L4.476,1.96813243 C4.248,1.80013243 3.96,1.70413243 3.732,1.70413243 C3.312,1.70413243 3,1.93213243 3,2.40013243 L3,2.82013243 L4.44,2.82013243 L4.44,4.23613243 L3,4.23613243 L3,9.00013243 L0.876,9.00013243 L0.876,4.23613243 L0,4.23613243 L0,2.82013243 L0.876,2.82013243 L0.876,2.22013243 C0.876,0.792132429 1.956,-0.0118675706 3.372,0.000132429368 Z"></path></clipPath><clipPath id="i31"><path d="M3.432,0 C5.22,0 6.264,0.864 6.276,2.352 L6.276,6.576 L4.176,6.576 L4.176,5.844 C3.756,6.384 3.096,6.672 2.22,6.672 C0.828,6.672 0,5.832 0,4.644 C0,3.408 0.876,2.7 2.484,2.676 L4.176,2.676 L4.176,2.604 C4.176,1.992 3.756,1.632 2.94,1.632 C2.4,1.632 1.692,1.812 0.996,2.148 L0.408,0.708 C1.428,0.252 2.364,0 3.432,0 Z M4.176,3.816 L2.904,3.816 C2.304,3.816 2.004,4.032 2.004,4.488 C2.004,4.932 2.328,5.22 2.88,5.22 C3.516,5.22 4.044,4.872 4.176,4.38 L4.176,3.816 Z"></path></clipPath><clipPath id="i32"><path d="M2.124,2.808 L2.124,9.3 L0,9.3 L0,2.808 L2.124,2.808 Z M1.068,0 C1.632,0 2.04,0.408 2.04,0.984 C2.04,1.548 1.632,1.956 1.068,1.956 C0.504,1.956 0.096,1.548 0.096,0.984 C0.096,0.408 0.504,0 1.068,0 Z"></path></clipPath><clipPath id="i33"><path d="M3.384,0 C5.652,0 6.804,1.524 6.66,3.888 L2.148,3.888 C2.352,4.62 2.892,5.028 3.624,5.028 C4.176,5.028 4.716,4.8 5.148,4.368 L6.264,5.484 C5.604,6.228 4.632,6.636 3.432,6.636 C1.308,6.636 0,5.328 0,3.348 C0,1.332 1.356,0 3.384,0 Z M3.396,1.5 C2.7,1.5 2.244,2.004 2.1,2.748 L4.596,2.748 C4.596,2.004 4.116,1.5 3.396,1.5 Z"></path></clipPath><clipPath id="i34"><path d="M3.888,0 C5.124,0 6.372,0.384 7.248,0.948 L6.42,2.688 C5.532,2.184 4.404,1.788 3.708,1.788 C3.18,1.788 2.832,1.98 2.832,2.364 C2.832,3.756 7.26,2.964 7.26,5.988 C7.26,7.704 5.748,8.58 3.876,8.58 C2.472,8.58 1.008,8.064 0,7.236 L0.852,5.52 C1.716,6.264 3.024,6.792 3.9,6.792 C4.548,6.792 4.956,6.552 4.956,6.108 C4.956,4.68 0.528,5.544 0.528,2.568 C0.528,0.996 1.86,0 3.888,0 Z"></path></clipPath><clipPath id="i35"><path d="M3.432,0 C5.22,0 6.264,0.864 6.276,2.352 L6.276,6.576 L4.176,6.576 L4.176,5.844 C3.756,6.384 3.096,6.672 2.22,6.672 C0.828,6.672 0,5.832 0,4.644 C0,3.408 0.876,2.7 2.484,2.676 L4.176,2.676 L4.176,2.604 C4.176,1.992 3.756,1.632 2.94,1.632 C2.4,1.632 1.692,1.812 0.996,2.148 L0.408,0.708 C1.428,0.252 2.364,0 3.432,0 Z M4.176,3.816 L2.904,3.816 C2.304,3.816 2.004,4.032 2.004,4.488 C2.004,4.932 2.328,5.22 2.88,5.22 C3.516,5.22 4.044,4.872 4.176,4.38 L4.176,3.816 Z"></path></clipPath><clipPath id="i36"><path d="M2.196,0 L3.552,4.512 L4.92,0 L7.056,0 L4.62,6.492 L2.424,6.492 L0,0 L2.196,0 Z"></path></clipPath><clipPath id="i37"><path d="M3.54,0 C5.676,0 7.092,1.32 7.092,3.312 C7.092,5.316 5.676,6.636 3.54,6.636 C1.404,6.636 0,5.316 0,3.312 C0,1.32 1.404,0 3.54,0 Z M3.54,1.728 C2.712,1.728 2.148,2.376 2.148,3.336 C2.148,4.308 2.712,4.956 3.54,4.956 C4.38,4.956 4.944,4.308 4.944,3.336 C4.944,2.376 4.38,1.728 3.54,1.728 Z"></path></clipPath><clipPath id="i38"><path d="M2.124,2.808 L2.124,9.3 L0,9.3 L0,2.808 L2.124,2.808 Z M1.068,0 C1.632,0 2.04,0.408 2.04,0.984 C2.04,1.548 1.632,1.956 1.068,1.956 C0.504,1.956 0.096,1.548 0.096,0.984 C0.096,0.408 0.504,0 1.068,0 Z"></path></clipPath><clipPath id="i39"><path d="M4.224,0 L4.224,1.956 C3.036,1.836 2.244,2.364 2.136,3.264 L2.136,6.576 L0,6.576 L0,0.084 L2.136,0.084 L2.136,1.164 C2.58,0.42 3.312,0 4.224,0 Z"></path></clipPath><clipPath id="i40"><path d="M3.18,0 L3.18,1.368 L0,1.368 L0,0 L3.18,0 Z"></path></clipPath><clipPath id="i41"><path d="M3.384,2.58 C5.652,2.58 6.804,4.104 6.66,6.468 L2.148,6.468 C2.352,7.2 2.892,7.608 3.624,7.608 C4.176,7.608 4.716,7.38 5.148,6.948 L6.264,8.064 C5.604,8.808 4.632,9.216 3.432,9.216 C1.308,9.216 0,7.908 0,5.928 C0,3.912 1.356,2.58 3.384,2.58 Z M3.396,4.08 C2.7,4.08 2.244,4.584 2.1,5.328 L4.596,5.328 C4.596,4.584 4.116,4.08 3.396,4.08 Z M4.176,0 L5.532,1.836 L4.02,1.836 L3.324,0.816 L2.628,1.836 L1.116,1.836 L2.472,0 L4.176,0 Z"></path></clipPath><clipPath id="i42"><path d="M3.024,0 L3.024,1.8 L4.704,1.8 L4.704,3.216 L3.024,3.216 L3.024,5.664 C3.024,6.144 3.24,6.36 3.612,6.348 C3.828,6.348 4.104,6.264 4.416,6.132 L4.824,7.644 C4.356,7.92 3.708,8.076 3.072,8.076 C1.812,8.088 0.9,7.344 0.9,6 L0.9,3.216 L0,3.216 L0,1.8 L0.9,1.8 L0.9,0 L3.024,0 Z"></path></clipPath><clipPath id="i43"><path d="M3.384,0 C5.652,0 6.804,1.524 6.66,3.888 L2.148,3.888 C2.352,4.62 2.892,5.028 3.624,5.028 C4.176,5.028 4.716,4.8 5.148,4.368 L6.264,5.484 C5.604,6.228 4.632,6.636 3.432,6.636 C1.308,6.636 0,5.328 0,3.348 C0,1.332 1.356,0 3.384,0 Z M3.396,1.5 C2.7,1.5 2.244,2.004 2.1,2.748 L4.596,2.748 C4.596,2.004 4.116,1.5 3.396,1.5 Z"></path></clipPath><clipPath id="i44"><path d="M4.524,0 C5.796,0 7.152,0.576 8.004,1.488 L6.564,3.192 C6.036,2.52 5.256,2.076 4.56,2.076 C3.42,2.076 2.556,3 2.556,4.236 C2.556,5.472 3.42,6.408 4.56,6.408 C5.208,6.408 5.988,6.024 6.564,5.436 L8.004,6.972 C7.092,7.956 5.712,8.592 4.44,8.592 C1.884,8.592 0,6.744 0,4.26 C0,1.812 1.92,0 4.524,0 Z"></path></clipPath><clipPath id="i45"><path d="M4.584,0 C7.224,0 9.168,1.812 9.168,4.272 C9.168,6.744 7.224,8.592 4.584,8.592 C1.944,8.592 0,6.756 0,4.272 C0,1.8 1.944,0 4.584,0 Z M4.62,2.088 C3.504,2.088 2.556,3.012 2.556,4.284 C2.556,5.556 3.516,6.504 4.62,6.504 C5.724,6.504 6.612,5.556 6.612,4.284 C6.612,3.012 5.724,2.088 4.62,2.088 Z"></path></clipPath><clipPath id="i46"><path d="M2.676,0 L4.704,4.656 L6.732,0 L9.408,0 L9.408,8.412 L7.224,8.412 L7.212,3.432 L5.52,7.584 L3.888,7.584 L2.196,3.432 L2.196,8.412 L0,8.412 L0,0 L2.676,0 Z"></path></clipPath><clipPath id="i47"><path d="M3.816,0 C5.988,0 7.236,1.08 7.236,2.988 C7.236,4.992 5.988,6.144 3.816,6.144 L2.496,6.144 L2.496,8.412 L0,8.412 L0,0 Z M3.696,1.92 L2.496,1.92 L2.496,4.224 L3.696,4.224 C4.44,4.224 4.872,3.816 4.872,3.06 C4.872,2.328 4.44,1.92 3.696,1.92 Z"></path></clipPath><clipPath id="i48"><path d="M6.876,2.772 L6.876,4.692 L2.496,4.692 L2.496,6.012 L6.468,6.012 L6.468,7.932 L2.496,7.932 L2.496,9.264 L6.996,9.264 L6.996,11.184 L0,11.184 L0,2.772 L6.876,2.772 Z M3.6,0 L5.7,0.696 L4.092,2.16 L2.316,2.16 L3.6,0 Z"></path></clipPath><clipPath id="i49"><path d="M7.392,0 L7.392,1.992 L4.944,1.992 L4.944,8.412 L2.436,8.412 L2.436,1.992 L0,1.992 L0,0 L7.392,0 Z"></path></clipPath><clipPath id="i50"><path d="M6.876,0 L6.876,1.92 L2.496,1.92 L2.496,3.24 L6.468,3.24 L6.468,5.16 L2.496,5.16 L2.496,6.492 L6.996,6.492 L6.996,8.412 L0,8.412 L0,0 L6.876,0 Z"></path></clipPath><clipPath id="i51"><path d="M2.136,0 L5.7,4.704 L5.7,0 L7.98,0 L7.98,8.412 L5.856,8.412 L2.292,3.732 L2.292,8.412 L0,8.412 L0,0 L2.136,0 Z"></path></clipPath><clipPath id="i52"><path d="M4.524,0 C5.796,0 7.152,0.576 8.004,1.488 L6.564,3.192 C6.036,2.52 5.256,2.076 4.56,2.076 C3.42,2.076 2.556,3 2.556,4.236 C2.556,5.472 3.42,6.408 4.56,6.408 C5.208,6.408 5.988,6.024 6.564,5.436 L8.004,6.972 C7.092,7.956 5.712,8.592 4.44,8.592 C1.884,8.592 0,6.744 0,4.26 C0,1.812 1.92,0 4.524,0 Z"></path></clipPath><clipPath id="i53"><path d="M6.876,0 L6.876,1.92 L2.496,1.92 L2.496,3.24 L6.468,3.24 L6.468,5.16 L2.496,5.16 L2.496,6.492 L6.996,6.492 L6.996,8.412 L0,8.412 L0,0 L6.876,0 Z"></path></clipPath><clipPath id="i54"><path d="M4.02,0 C5.304,0 6.624,0.384 7.536,0.972 L6.612,2.892 C5.748,2.4 4.524,1.956 3.816,1.956 C3.396,1.956 3.12,2.1 3.12,2.412 C3.12,3.648 7.512,2.916 7.512,5.952 C7.512,7.74 5.928,8.592 4.044,8.592 C2.616,8.592 1.056,8.088 0,7.26 L0.936,5.364 C1.8,6.096 3.204,6.648 4.068,6.648 C4.596,6.648 4.932,6.468 4.932,6.084 C4.932,4.812 0.54,5.616 0.54,2.652 C0.54,1.032 1.92,0 4.02,0 Z"></path></clipPath><clipPath id="i55"><path d="M150,0 L150,2 L0,2 L0,0 L150,0 Z"></path></clipPath><clipPath id="i56"><path d="M4.11132812,0 L4.11132812,1.24023438 L1.51367188,1.24023438 L1.51367188,2.80761719 L3.93066406,2.80761719 L3.93066406,4.04785156 L1.51367188,4.04785156 L1.51367188,5.88867188 L4.11132812,5.88867188 L4.11132812,7.13867188 L0,7.13867188 L0,0 L4.11132812,0 Z"></path></clipPath><clipPath id="i57"><path d="M2.16308594,0 C2.82063802,0 3.46028646,0.143229167 4.08203125,0.4296875 L3.6328125,1.50390625 C3.359375,1.38671875 3.10384115,1.2906901 2.86621094,1.21582031 C2.62858073,1.14095052 2.38606771,1.10351562 2.13867188,1.10351562 C1.69921875,1.10351562 1.47949219,1.22233073 1.47949219,1.45996094 C1.47949219,1.59342448 1.55029297,1.70898438 1.69189453,1.80664062 C1.83349609,1.90429688 2.14355469,2.04915365 2.62207031,2.24121094 C3.0485026,2.41373698 3.3610026,2.57486979 3.55957031,2.72460938 C3.75813802,2.87434896 3.9046224,3.046875 3.99902344,3.2421875 C4.09342448,3.4375 4.140625,3.6702474 4.140625,3.94042969 C4.140625,4.50032552 3.9461263,4.92675781 3.55712891,5.21972656 C3.16813151,5.51269531 2.58626302,5.65917969 1.81152344,5.65917969 C1.41438802,5.65917969 1.07584635,5.63232422 0.795898438,5.57861328 C0.515950521,5.52490234 0.25390625,5.44596354 0.009765625,5.34179688 L0.009765625,4.11132812 C0.286458333,4.24153646 0.598144531,4.35058594 0.944824219,4.43847656 C1.29150391,4.52636719 1.59667969,4.5703125 1.86035156,4.5703125 C2.40071615,4.5703125 2.67089844,4.4140625 2.67089844,4.1015625 C2.67089844,3.984375 2.63509115,3.88916016 2.56347656,3.81591797 C2.49186198,3.74267578 2.36816406,3.65966797 2.19238281,3.56689453 C2.01660156,3.47412109 1.78222656,3.36588542 1.48925781,3.2421875 C1.06933594,3.06640625 0.760904948,2.90364583 0.563964844,2.75390625 C0.36702474,2.60416667 0.223795573,2.43245443 0.134277344,2.23876953 C0.0447591146,2.04508464 0,1.80664062 0,1.5234375 C0,1.03841146 0.187988281,0.663248698 0.563964844,0.397949219 C0.939941406,0.13264974 1.47298177,0 2.16308594,0 Z"></path></clipPath><clipPath id="i58"><path d="M3.03710938,0 C3.68164062,0 4.18619792,0.249023438 4.55078125,0.747070312 C4.91536458,1.24511719 5.09765625,1.93684896 5.09765625,2.82226562 C5.09765625,3.40494792 5.01220703,3.91113281 4.84130859,4.34082031 C4.67041016,4.77050781 4.42708333,5.09765625 4.11132812,5.32226562 C3.79557292,5.546875 3.42447917,5.65917969 2.99804688,5.65917969 C2.35677083,5.65917969 1.85384115,5.42643229 1.48925781,4.9609375 L1.41113281,4.9609375 L1.4453125,5.26672363 C1.47460938,5.53649902 1.48925781,5.69824219 1.48925781,5.75195312 L1.48925781,7.96386719 L0,7.96386719 L0,0.102539062 L1.2109375,0.102539062 L1.42089844,0.810546875 L1.48925781,0.810546875 C1.8375651,0.270182292 2.35351562,0 3.03710938,0 Z M2.55859375,1.19140625 C2.19075521,1.19140625 1.92220052,1.30452474 1.75292969,1.53076172 C1.58365885,1.7569987 1.49576823,2.13053385 1.48925781,2.65136719 L1.48925781,2.8125 C1.48925781,3.3984375 1.57633464,3.81835938 1.75048828,4.07226562 C1.92464193,4.32617188 2.20052083,4.453125 2.578125,4.453125 C3.24544271,4.453125 3.57910156,3.90299479 3.57910156,2.80273438 C3.57910156,2.265625 3.49690755,1.86279297 3.33251953,1.59423828 C3.16813151,1.32568359 2.91015625,1.19140625 2.55859375,1.19140625 Z"></path></clipPath><clipPath id="i59"><path d="M3.046875,0 C3.24869792,0 3.41634115,0.0146484375 3.54980469,0.0439453125 L3.4375,1.44042969 C3.31705729,1.4078776 3.17057292,1.39160156 2.99804688,1.39160156 C2.52278646,1.39160156 2.15250651,1.51367188 1.88720703,1.7578125 C1.62190755,2.00195312 1.48925781,2.34375 1.48925781,2.78320312 L1.48925781,5.56152344 L0,5.56152344 L0,0.102539062 L1.12792969,0.102539062 L1.34765625,1.02050781 L1.42089844,1.02050781 C1.59016927,0.714518229 1.81884766,0.467936198 2.10693359,0.280761719 C2.39501953,0.0935872396 2.70833333,0 3.046875,0 Z"></path></clipPath><clipPath id="i60"><path d="M1.55273438,2.13867188 L1.55273438,7.59765625 L0.0634765625,7.59765625 L0.0634765625,2.13867188 L1.55273438,2.13867188 Z M0.810546875,0 C1.35091146,0 1.62109375,0.242513021 1.62109375,0.727539062 C1.62109375,0.958658854 1.55354818,1.13850911 1.41845703,1.26708984 C1.28336589,1.39567057 1.08072917,1.45996094 0.810546875,1.45996094 C0.270182292,1.45996094 0,1.21582031 0,0.727539062 C0,0.242513021 0.270182292,0 0.810546875,0 Z"></path></clipPath><clipPath id="i61"><path d="M2.20214844,0 L2.20214844,1.16210938 L3.73046875,1.16210938 L3.73046875,2.28027344 L2.20214844,2.28027344 L2.20214844,4.91210938 C2.20214844,5.12369792 2.26155599,5.27994792 2.38037109,5.38085938 C2.4991862,5.48177083 2.65625,5.53222656 2.8515625,5.53222656 C3.11197917,5.53222656 3.42447917,5.47526042 3.7890625,5.36132812 L3.7890625,6.46972656 C3.41796875,6.63574219 2.96223958,6.71875 2.421875,6.71875 C1.82617188,6.71875 1.39241536,6.56819661 1.12060547,6.26708984 C0.848795573,5.96598307 0.712890625,5.51432292 0.712890625,4.91210938 L0.712890625,2.28027344 L0,2.28027344 L0,1.65039062 L0.8203125,1.15234375 L1.25,0 L2.20214844,0 Z"></path></clipPath><clipPath id="i62"><path d="M5.10253906,0 L5.10253906,7.59765625 L3.95996094,7.59765625 L3.671875,6.88964844 L3.60839844,6.88964844 C3.26985677,7.42675781 2.75390625,7.6953125 2.06054688,7.6953125 C1.41927083,7.6953125 0.915527344,7.44628906 0.549316406,6.94824219 C0.183105469,6.45019531 0,5.76009115 0,4.87792969 C0,3.9827474 0.186360677,3.28531901 0.559082031,2.78564453 C0.931803385,2.28597005 1.4453125,2.03613281 2.09960938,2.03613281 C2.78645833,2.03613281 3.31054688,2.3030599 3.671875,2.83691406 L3.72070312,2.83691406 C3.64583333,2.43001302 3.60839844,2.06705729 3.60839844,1.74804688 L3.60839844,0 L5.10253906,0 Z M2.55859375,3.24707031 C2.2265625,3.24707031 1.96858724,3.38785807 1.78466797,3.66943359 C1.6007487,3.95100911 1.50878906,4.36035156 1.50878906,4.89746094 C1.50878906,5.43457031 1.6015625,5.83740234 1.78710938,6.10595703 C1.97265625,6.37451172 2.23795573,6.50878906 2.58300781,6.50878906 C2.96386719,6.50878906 3.2430013,6.39811198 3.42041016,6.17675781 C3.59781901,5.95540365 3.69466146,5.57942708 3.7109375,5.04882812 L3.7109375,4.88769531 C3.7109375,4.30175781 3.62060547,3.88183594 3.43994141,3.62792969 C3.25927734,3.37402344 2.96549479,3.24707031 2.55859375,3.24707031 Z"></path></clipPath><clipPath id="i63"><path d="M1.36230469,0 L1.16210938,2.578125 L0.200195312,2.578125 L0,0 L1.36230469,0 Z"></path></clipPath><clipPath id="i64"><path d="M2.58300781,2.09960938 C3.35449219,2.09960938 3.95507812,2.31933594 4.38476562,2.75878906 C4.81445312,3.19824219 5.02929688,3.80533854 5.02929688,4.58007812 L5.02929688,5.30273438 L1.50878906,5.30273438 C1.5250651,5.72591146 1.65039062,6.0563151 1.88476562,6.29394531 C2.11914062,6.53157552 2.44791667,6.65039062 2.87109375,6.65039062 C3.19986979,6.65039062 3.51074219,6.61621094 3.80371094,6.54785156 C4.09667969,6.47949219 4.40266927,6.37044271 4.72167969,6.22070312 L4.72167969,7.37304688 C4.46126302,7.50325521 4.18294271,7.60009766 3.88671875,7.66357422 C3.59049479,7.72705078 3.22916667,7.75878906 2.80273438,7.75878906 C1.92382812,7.75878906 1.23697917,7.51627604 0.7421875,7.03125 C0.247395833,6.54622396 0,5.859375 0,4.97070312 C0,4.05598958 0.228678385,3.34879557 0.686035156,2.84912109 C1.14339193,2.34944661 1.77571615,2.09960938 2.58300781,2.09960938 Z M2.59277344,3.15917969 C2.27701823,3.15917969 2.0296224,3.25927734 1.85058594,3.45947266 C1.67154948,3.65966797 1.56901042,3.9436849 1.54296875,4.31152344 L3.6328125,4.31152344 C3.62630208,3.9436849 3.53027344,3.65966797 3.34472656,3.45947266 C3.15917969,3.25927734 2.90852865,3.15917969 2.59277344,3.15917969 Z M4.55078125,0 L4.55078125,0.102539062 C4.38151042,0.271809896 4.09261068,0.52327474 3.68408203,0.856933594 C3.27555339,1.19059245 2.95572917,1.43880208 2.72460938,1.6015625 L1.73339844,1.6015625 L1.73339844,1.46972656 C2.29329427,0.818684896 2.67578125,0.328776042 2.88085938,0 L4.55078125,0 Z"></path></clipPath><clipPath id="i65"><path d="M2.08984375,0 C2.43489583,0 2.7360026,0.0651041667 2.99316406,0.1953125 C3.25032552,0.325520833 3.4765625,0.52734375 3.671875,0.80078125 L3.7109375,0.80078125 L3.84277344,0.102539062 L5.10253906,0.102539062 L5.10253906,7.96386719 L3.60839844,7.96386719 L3.60839844,5.67382812 C3.60839844,5.47526042 3.62955729,5.20182292 3.671875,4.85351562 L3.60839844,4.85351562 C3.44889323,5.1171875 3.23730469,5.31738281 2.97363281,5.45410156 C2.70996094,5.59082031 2.40559896,5.65917969 2.06054688,5.65917969 C1.41601562,5.65917969 0.911458333,5.41097005 0.546875,4.91455078 C0.182291667,4.41813151 0,3.72721354 0,2.84179688 C0,1.94986979 0.186360677,1.25325521 0.559082031,0.751953125 C0.931803385,0.250651042 1.44205729,0 2.08984375,0 Z M2.56835938,1.2109375 C1.86848958,1.2109375 1.51855469,1.76106771 1.51855469,2.86132812 C1.51855469,3.40820312 1.60563151,3.81673177 1.77978516,4.08691406 C1.9539388,4.35709635 2.2249349,4.4921875 2.59277344,4.4921875 C2.9703776,4.4921875 3.24707031,4.38395182 3.42285156,4.16748047 C3.59863281,3.95100911 3.69466146,3.57259115 3.7109375,3.03222656 L3.7109375,2.8515625 C3.7109375,2.265625 3.62060547,1.84570312 3.43994141,1.59179688 C3.25927734,1.33789062 2.96875,1.2109375 2.56835938,1.2109375 Z"></path></clipPath><clipPath id="i66"><path d="M1.48925781,0 L1.48925781,3.18847656 C1.48925781,3.58235677 1.55924479,3.87776693 1.69921875,4.07470703 C1.83919271,4.27164714 2.06217448,4.37011719 2.36816406,4.37011719 C2.78483073,4.37011719 3.0859375,4.23095703 3.27148438,3.95263672 C3.45703125,3.67431641 3.54980469,3.21289063 3.54980469,2.56835938 L3.54980469,0 L5.0390625,0 L5.0390625,5.45898438 L3.89648438,5.45898438 L3.69628906,4.76074219 L3.61816406,4.76074219 C3.45865885,5.01464844 3.23242188,5.21077474 2.93945312,5.34912109 C2.64648438,5.48746745 2.31282552,5.55664062 1.93847656,5.55664062 C1.29720052,5.55664062 0.813802083,5.38492839 0.48828125,5.04150391 C0.162760417,4.69807943 0,4.20410156 0,3.55957031 L0,0 L1.48925781,0 Z"></path></clipPath><clipPath id="i67"><path d="M2.58300781,0 C3.35449219,0 3.95507812,0.219726562 4.38476562,0.659179688 C4.81445312,1.09863281 5.02929688,1.70572917 5.02929688,2.48046875 L5.02929688,3.203125 L1.50878906,3.203125 C1.5250651,3.62630208 1.65039062,3.95670573 1.88476562,4.19433594 C2.11914062,4.43196615 2.44791667,4.55078125 2.87109375,4.55078125 C3.19986979,4.55078125 3.51074219,4.51660156 3.80371094,4.44824219 C4.09667969,4.37988281 4.40266927,4.27083333 4.72167969,4.12109375 L4.72167969,5.2734375 C4.46126302,5.40364583 4.18294271,5.50048828 3.88671875,5.56396484 C3.59049479,5.62744141 3.22916667,5.65917969 2.80273438,5.65917969 C1.92382812,5.65917969 1.23697917,5.41666667 0.7421875,4.93164062 C0.247395833,4.44661458 0,3.75976562 0,2.87109375 C0,1.95638021 0.228678385,1.2491862 0.686035156,0.749511719 C1.14339193,0.24983724 1.77571615,0 2.58300781,0 Z M2.59277344,1.05957031 C2.27701823,1.05957031 2.0296224,1.15966797 1.85058594,1.35986328 C1.67154948,1.56005859 1.56901042,1.84407552 1.54296875,2.21191406 L3.6328125,2.21191406 C3.62630208,1.84407552 3.53027344,1.56005859 3.34472656,1.35986328 C3.15917969,1.15966797 2.90852865,1.05957031 2.59277344,1.05957031 Z"></path></clipPath><clipPath id="i68"><path d="M3.40820312,0 C4.50520833,0 5.34423828,0.315755208 5.92529297,0.947265625 C6.50634766,1.57877604 6.796875,2.48697917 6.796875,3.671875 C6.796875,4.85351562 6.50390625,5.76171875 5.91796875,6.39648438 C5.33203125,7.03125 4.4921875,7.34863281 3.3984375,7.34863281 C2.3046875,7.34863281 1.46484375,7.03125 0.87890625,6.39648438 C0.29296875,5.76171875 0,4.85026042 0,3.66210938 C0,2.47395833 0.293782552,1.56656901 0.881347656,0.939941406 C1.46891276,0.313313802 2.31119792,0 3.40820312,0 Z M3.40820312,1.25976562 C2.80598958,1.25976562 2.35188802,1.46240234 2.04589844,1.86767578 C1.73990885,2.27294922 1.58691406,2.87434896 1.58691406,3.671875 C1.58691406,4.46940104 1.73828125,5.06998698 2.04101562,5.47363281 C2.34375,5.87727865 2.79622396,6.07910156 3.3984375,6.07910156 C4.60611979,6.07910156 5.20996094,5.27669271 5.20996094,3.671875 C5.20996094,2.06380208 4.609375,1.25976562 3.40820312,1.25976562 Z"></path></clipPath><clipPath id="i69"><path d="M3.046875,0 C3.24869792,0 3.41634115,0.0146484375 3.54980469,0.0439453125 L3.4375,1.44042969 C3.31705729,1.4078776 3.17057292,1.39160156 2.99804688,1.39160156 C2.52278646,1.39160156 2.15250651,1.51367188 1.88720703,1.7578125 C1.62190755,2.00195312 1.48925781,2.34375 1.48925781,2.78320312 L1.48925781,5.56152344 L0,5.56152344 L0,0.102539062 L1.12792969,0.102539062 L1.34765625,1.02050781 L1.42089844,1.02050781 C1.59016927,0.714518229 1.81884766,0.467936198 2.10693359,0.280761719 C2.39501953,0.0935872396 2.70833333,0 3.046875,0 Z"></path></clipPath><clipPath id="i70"><path d="M2.65136719,0 C2.80436198,0 2.98583984,0.0138346354 3.19580078,0.0415039062 C3.40576172,0.0691731771 3.54003906,0.0895182292 3.59863281,0.102539062 L5.50292969,0.102539062 L5.50292969,0.859375 L4.6484375,1.07910156 C4.8046875,1.32324219 4.8828125,1.59667969 4.8828125,1.89941406 C4.8828125,2.48535156 4.67854818,2.94189453 4.27001953,3.26904297 C3.86149089,3.59619141 3.29427083,3.75976562 2.56835938,3.75976562 L2.29980469,3.74511719 L2.08007812,3.72070312 C1.92708333,3.83789062 1.85058594,3.96809896 1.85058594,4.11132812 C1.85058594,4.32617188 2.12402344,4.43359375 2.67089844,4.43359375 L3.59863281,4.43359375 C4.19759115,4.43359375 4.65413411,4.56217448 4.96826172,4.81933594 C5.28238932,5.0764974 5.43945312,5.45410156 5.43945312,5.95214844 C5.43945312,6.59016927 5.17333984,7.08496094 4.64111328,7.43652344 C4.10888672,7.78808594 3.34472656,7.96386719 2.34863281,7.96386719 C1.58691406,7.96386719 1.00504557,7.83121745 0.603027344,7.56591797 C0.201009115,7.30061849 0,6.92871094 0,6.45019531 C0,6.12141927 0.102539062,5.84635417 0.307617188,5.625 C0.512695312,5.40364583 0.813802083,5.24576823 1.2109375,5.15136719 C1.05794271,5.08626302 0.924479167,4.97965495 0.810546875,4.83154297 C0.696614583,4.68343099 0.639648438,4.52636719 0.639648438,4.36035156 C0.639648438,4.15201823 0.699869792,3.97867839 0.8203125,3.84033203 C0.940755208,3.70198568 1.11490885,3.56608073 1.34277344,3.43261719 C1.0563151,3.30891927 0.829264323,3.11035156 0.661621094,2.83691406 C0.493977865,2.56347656 0.41015625,2.24121094 0.41015625,1.87011719 C0.41015625,1.27441406 0.603841146,0.813802083 0.991210938,0.48828125 C1.37858073,0.162760417 1.93196615,0 2.65136719,0 Z M3.02246094,5.62988281 L2.25097656,5.62988281 C1.97753906,5.62988281 1.74886068,5.69417318 1.56494141,5.82275391 C1.38102214,5.95133464 1.2890625,6.12141927 1.2890625,6.33300781 C1.2890625,6.53808594 1.38753255,6.69921875 1.58447266,6.81640625 C1.78141276,6.93359375 2.05729167,6.9921875 2.41210938,6.9921875 C2.94596354,6.9921875 3.36425781,6.91894531 3.66699219,6.77246094 C3.96972656,6.62597656 4.12109375,6.42578125 4.12109375,6.171875 C4.12109375,5.96679688 4.03157552,5.82519531 3.85253906,5.74707031 C3.6735026,5.66894531 3.3968099,5.62988281 3.02246094,5.62988281 Z M2.65136719,0.903320312 C2.10449219,0.903320312 1.83105469,1.23209635 1.83105469,1.88964844 C1.83105469,2.1858724 1.89860026,2.4202474 2.03369141,2.59277344 C2.16878255,2.76529948 2.37467448,2.8515625 2.65136719,2.8515625 C2.9313151,2.8515625 3.13639323,2.76529948 3.26660156,2.59277344 C3.3968099,2.4202474 3.46191406,2.1858724 3.46191406,1.88964844 C3.46191406,1.23209635 3.19173177,0.903320312 2.65136719,0.903320312 Z"></path></clipPath><clipPath id="i71"><path d="M2.59765625,0 C3.33007812,0 3.89160156,0.159505208 4.28222656,0.478515625 C4.67285156,0.797526042 4.86816406,1.28255208 4.86816406,1.93359375 L4.86816406,5.57128906 L3.828125,5.57128906 L3.54003906,4.82910156 L3.50097656,4.82910156 C3.25032552,5.14485677 2.99235026,5.36376953 2.72705078,5.48583984 C2.4617513,5.60791016 2.11588542,5.66894531 1.68945312,5.66894531 C1.16536458,5.66894531 0.752766927,5.51920573 0.451660156,5.21972656 C0.150553385,4.9202474 0,4.4938151 0,3.94042969 C0,3.3610026 0.202636719,2.93375651 0.607910156,2.65869141 C1.01318359,2.3836263 1.62434896,2.23144531 2.44140625,2.20214844 L3.38867188,2.17285156 L3.38867188,1.93359375 C3.38867188,1.38020833 3.10546875,1.10351562 2.5390625,1.10351562 C2.10286458,1.10351562 1.59016927,1.23535156 1.00097656,1.49902344 L0.5078125,0.493164062 C1.13606771,0.164388021 1.83268229,0 2.59765625,0 Z M3.38867188,3.04199219 L2.8125,3.06152344 C2.37955729,3.07454427 2.05729167,3.15266927 1.84570312,3.29589844 C1.63411458,3.4391276 1.52832031,3.65722656 1.52832031,3.95019531 C1.52832031,4.37011719 1.76920573,4.58007812 2.25097656,4.58007812 C2.59602865,4.58007812 2.87190755,4.48079427 3.07861328,4.28222656 C3.28531901,4.08365885 3.38867188,3.81998698 3.38867188,3.49121094 L3.38867188,3.04199219 Z"></path></clipPath><clipPath id="i72"><path d="M3.10058594,0 C3.73535156,0 4.2171224,0.17171224 4.54589844,0.515136719 C4.87467448,0.858561198 5.0390625,1.35416667 5.0390625,2.00195312 L5.0390625,5.56152344 L3.54980469,5.56152344 L3.54980469,2.37304688 C3.54980469,1.97916667 3.47981771,1.68375651 3.33984375,1.48681641 C3.19986979,1.2898763 2.97688802,1.19140625 2.67089844,1.19140625 C2.25423177,1.19140625 1.953125,1.33056641 1.76757812,1.60888672 C1.58203125,1.88720703 1.48925781,2.34863281 1.48925781,2.99316406 L1.48925781,5.56152344 L0,5.56152344 L0,0.102539062 L1.13769531,0.102539062 L1.33789063,0.80078125 L1.42089844,0.80078125 C1.58691406,0.537109375 1.81559245,0.337727865 2.10693359,0.202636719 C2.39827474,0.0675455729 2.72949219,0 3.10058594,0 Z"></path></clipPath><clipPath id="i73"><path d="M2.16308594,0 C2.82063802,0 3.46028646,0.143229167 4.08203125,0.4296875 L3.6328125,1.50390625 C3.359375,1.38671875 3.10384115,1.2906901 2.86621094,1.21582031 C2.62858073,1.14095052 2.38606771,1.10351562 2.13867188,1.10351562 C1.69921875,1.10351562 1.47949219,1.22233073 1.47949219,1.45996094 C1.47949219,1.59342448 1.55029297,1.70898438 1.69189453,1.80664062 C1.83349609,1.90429688 2.14355469,2.04915365 2.62207031,2.24121094 C3.0485026,2.41373698 3.3610026,2.57486979 3.55957031,2.72460938 C3.75813802,2.87434896 3.9046224,3.046875 3.99902344,3.2421875 C4.09342448,3.4375 4.140625,3.6702474 4.140625,3.94042969 C4.140625,4.50032552 3.9461263,4.92675781 3.55712891,5.21972656 C3.16813151,5.51269531 2.58626302,5.65917969 1.81152344,5.65917969 C1.41438802,5.65917969 1.07584635,5.63232422 0.795898438,5.57861328 C0.515950521,5.52490234 0.25390625,5.44596354 0.009765625,5.34179688 L0.009765625,4.11132812 C0.286458333,4.24153646 0.598144531,4.35058594 0.944824219,4.43847656 C1.29150391,4.52636719 1.59667969,4.5703125 1.86035156,4.5703125 C2.40071615,4.5703125 2.67089844,4.4140625 2.67089844,4.1015625 C2.67089844,3.984375 2.63509115,3.88916016 2.56347656,3.81591797 C2.49186198,3.74267578 2.36816406,3.65966797 2.19238281,3.56689453 C2.01660156,3.47412109 1.78222656,3.36588542 1.48925781,3.2421875 C1.06933594,3.06640625 0.760904948,2.90364583 0.563964844,2.75390625 C0.36702474,2.60416667 0.223795573,2.43245443 0.134277344,2.23876953 C0.0447591146,2.04508464 0,1.80664062 0,1.5234375 C0,1.03841146 0.187988281,0.663248698 0.563964844,0.397949219 C0.939941406,0.13264974 1.47298177,0 2.16308594,0 Z"></path></clipPath><clipPath id="i74"><path d="M2.20214844,0 L2.20214844,1.16210938 L3.73046875,1.16210938 L3.73046875,2.28027344 L2.20214844,2.28027344 L2.20214844,4.91210938 C2.20214844,5.12369792 2.26155599,5.27994792 2.38037109,5.38085938 C2.4991862,5.48177083 2.65625,5.53222656 2.8515625,5.53222656 C3.11197917,5.53222656 3.42447917,5.47526042 3.7890625,5.36132812 L3.7890625,6.46972656 C3.41796875,6.63574219 2.96223958,6.71875 2.421875,6.71875 C1.82617188,6.71875 1.39241536,6.56819661 1.12060547,6.26708984 C0.848795573,5.96598307 0.712890625,5.51432292 0.712890625,4.91210938 L0.712890625,2.28027344 L0,2.28027344 L0,1.65039062 L0.8203125,1.15234375 L1.25,0 L2.20214844,0 Z"></path></clipPath><clipPath id="i75"><path d="M2.66113281,0 C3.18522135,0 3.64746094,0.113932292 4.04785156,0.341796875 C4.44824219,0.569661458 4.75585938,0.896809896 4.97070312,1.32324219 C5.18554688,1.74967448 5.29296875,2.24934896 5.29296875,2.82226562 C5.29296875,3.7109375 5.05859375,4.40592448 4.58984375,4.90722656 C4.12109375,5.40852865 3.46842448,5.65917969 2.63183594,5.65917969 C2.1077474,5.65917969 1.64550781,5.54443359 1.24511719,5.31494141 C0.844726562,5.08544922 0.537109375,4.75585938 0.322265625,4.32617188 C0.107421875,3.89648438 0,3.39518229 0,2.82226562 C0,1.93033854 0.232747396,1.23697917 0.698242188,0.7421875 C1.16373698,0.247395833 1.81803385,0 2.66113281,0 Z M2.64160156,1.20117188 C2.24446615,1.20117188 1.95800781,1.33544922 1.78222656,1.60400391 C1.60644531,1.87255859 1.51855469,2.27864583 1.51855469,2.82226562 C1.51855469,3.36263021 1.60725911,3.77115885 1.78466797,4.04785156 C1.96207682,4.32454427 2.25097656,4.46289062 2.65136719,4.46289062 C3.0485026,4.46289062 3.33414714,4.32535807 3.50830078,4.05029297 C3.68245443,3.77522786 3.76953125,3.36588542 3.76953125,2.82226562 C3.76953125,2.28190104 3.68164062,1.8766276 3.50585938,1.60644531 C3.33007812,1.33626302 3.04199219,1.20117188 2.64160156,1.20117188 Z"></path></clipPath><clipPath id="i76"><path d="M3.10058594,0 C3.73535156,0 4.2171224,0.17171224 4.54589844,0.515136719 C4.87467448,0.858561198 5.0390625,1.35416667 5.0390625,2.00195312 L5.0390625,5.56152344 L3.54980469,5.56152344 L3.54980469,2.37304688 C3.54980469,1.97916667 3.47981771,1.68375651 3.33984375,1.48681641 C3.19986979,1.2898763 2.97688802,1.19140625 2.67089844,1.19140625 C2.25423177,1.19140625 1.953125,1.33056641 1.76757812,1.60888672 C1.58203125,1.88720703 1.48925781,2.34863281 1.48925781,2.99316406 L1.48925781,5.56152344 L0,5.56152344 L0,0.102539062 L1.13769531,0.102539062 L1.33789063,0.80078125 L1.42089844,0.80078125 C1.58691406,0.537109375 1.81559245,0.337727865 2.10693359,0.202636719 C2.39827474,0.0675455729 2.72949219,0 3.10058594,0 Z"></path></clipPath><clipPath id="i77"><path d="M4.37011719,0 L6.89941406,7.16796875 L5.26855469,7.16796875 L4.75097656,5.46875 L2.1484375,5.46875 L1.63085938,7.16796875 L0,7.16796875 L2.51953125,0 L4.37011719,0 Z M3.45214844,1.10839844 C3.34472656,1.5250651 3.03710938,2.55533854 2.52929688,4.19921875 L4.38964844,4.19921875 C3.91113281,2.65950521 3.64176432,1.78873698 3.58154297,1.58691406 C3.52132161,1.38509115 3.4781901,1.22558594 3.45214844,1.10839844 Z"></path></clipPath><clipPath id="i78"><path d="M1.48925781,0 L1.48925781,3.18847656 C1.48925781,3.58235677 1.55924479,3.87776693 1.69921875,4.07470703 C1.83919271,4.27164714 2.06217448,4.37011719 2.36816406,4.37011719 C2.78483073,4.37011719 3.0859375,4.23095703 3.27148438,3.95263672 C3.45703125,3.67431641 3.54980469,3.21289063 3.54980469,2.56835938 L3.54980469,0 L5.0390625,0 L5.0390625,5.45898438 L3.89648438,5.45898438 L3.69628906,4.76074219 L3.61816406,4.76074219 C3.45865885,5.01464844 3.23242188,5.21077474 2.93945312,5.34912109 C2.64648438,5.48746745 2.31282552,5.55664062 1.93847656,5.55664062 C1.29720052,5.55664062 0.813802083,5.38492839 0.48828125,5.04150391 C0.162760417,4.69807943 0,4.20410156 0,3.55957031 L0,0 L1.48925781,0 Z"></path></clipPath><clipPath id="i79"><path d="M2.20214844,0 L2.20214844,1.16210938 L3.73046875,1.16210938 L3.73046875,2.28027344 L2.20214844,2.28027344 L2.20214844,4.91210938 C2.20214844,5.12369792 2.26155599,5.27994792 2.38037109,5.38085938 C2.4991862,5.48177083 2.65625,5.53222656 2.8515625,5.53222656 C3.11197917,5.53222656 3.42447917,5.47526042 3.7890625,5.36132812 L3.7890625,6.46972656 C3.41796875,6.63574219 2.96223958,6.71875 2.421875,6.71875 C1.82617188,6.71875 1.39241536,6.56819661 1.12060547,6.26708984 C0.848795573,5.96598307 0.712890625,5.51432292 0.712890625,4.91210938 L0.712890625,2.28027344 L0,2.28027344 L0,1.65039062 L0.8203125,1.15234375 L1.25,0 L2.20214844,0 Z"></path></clipPath><clipPath id="i80"><path d="M6.41113281,0 C7.0296224,0 7.49755859,0.158691406 7.81494141,0.476074219 C8.13232422,0.793457031 8.29101562,1.30208333 8.29101562,2.00195312 L8.29101562,5.56152344 L6.796875,5.56152344 L6.796875,2.37304688 C6.796875,1.97916667 6.73095703,1.68375651 6.59912109,1.48681641 C6.46728516,1.2898763 6.25976562,1.19140625 5.9765625,1.19140625 C5.61197917,1.19140625 5.33935547,1.32161458 5.15869141,1.58203125 C4.97802734,1.84244792 4.88769531,2.25585938 4.88769531,2.82226562 L4.88769531,5.56152344 L3.3984375,5.56152344 L3.3984375,2.37304688 C3.3984375,1.97916667 3.33251953,1.68375651 3.20068359,1.48681641 C3.06884766,1.2898763 2.86132812,1.19140625 2.578125,1.19140625 C2.19726562,1.19140625 1.92057292,1.33138021 1.74804688,1.61132812 C1.57552083,1.89127604 1.48925781,2.35188802 1.48925781,2.99316406 L1.48925781,5.56152344 L0,5.56152344 L0,0.102539062 L1.13769531,0.102539062 L1.33789062,0.80078125 L1.42089844,0.80078125 C1.56738281,0.550130208 1.77897135,0.354003906 2.05566406,0.212402344 C2.33235677,0.0708007812 2.64973958,0 3.0078125,0 C3.82486979,0 4.37825521,0.266927083 4.66796875,0.80078125 L4.79980469,0.80078125 C4.94628906,0.546875 5.16194661,0.349934896 5.44677734,0.209960938 C5.73160807,0.0699869792 6.0530599,0 6.41113281,0 Z"></path></clipPath><clipPath id="i81"><path d="M3.34960938,0 C4.04296875,0 4.73958333,0.167643229 5.43945312,0.502929688 L4.95117188,1.73339844 C4.68424479,1.60644531 4.4156901,1.49576823 4.14550781,1.40136719 C3.87532552,1.30696615 3.61002604,1.25976562 3.34960938,1.25976562 C2.77994792,1.25976562 2.33886719,1.47379557 2.02636719,1.90185547 C1.71386719,2.32991536 1.55761719,2.92643229 1.55761719,3.69140625 C1.55761719,5.28320312 2.15494792,6.07910156 3.34960938,6.07910156 C3.85091146,6.07910156 4.45800781,5.95377604 5.17089844,5.703125 L5.17089844,6.97265625 C4.58496094,7.21679688 3.93066406,7.33886719 3.20800781,7.33886719 C2.16959635,7.33886719 1.37532552,7.02392578 0.825195312,6.39404297 C0.275065104,5.76416016 0,4.86002604 0,3.68164063 C0,2.93945312 0.135091146,2.28922526 0.405273437,1.73095703 C0.675455729,1.1726888 1.06363932,0.744628906 1.56982422,0.446777344 C2.07600911,0.148925781 2.66927083,0 3.34960938,0 Z"></path></clipPath><clipPath id="i82"><path d="M1.48925781,0 L1.48925781,3.18847656 C1.48925781,3.58235677 1.55924479,3.87776693 1.69921875,4.07470703 C1.83919271,4.27164714 2.06217448,4.37011719 2.36816406,4.37011719 C2.78483073,4.37011719 3.0859375,4.23095703 3.27148438,3.95263672 C3.45703125,3.67431641 3.54980469,3.21289063 3.54980469,2.56835938 L3.54980469,0 L5.0390625,0 L5.0390625,5.45898438 L3.89648438,5.45898438 L3.69628906,4.76074219 L3.61816406,4.76074219 C3.45865885,5.01464844 3.23242188,5.21077474 2.93945312,5.34912109 C2.64648438,5.48746745 2.31282552,5.55664062 1.93847656,5.55664062 C1.29720052,5.55664062 0.813802083,5.38492839 0.48828125,5.04150391 C0.162760417,4.69807943 0,4.20410156 0,3.55957031 L0,0 L1.48925781,0 Z"></path></clipPath><clipPath id="i83"><path d="M2.68066406,0 C3.31217448,0 3.87858073,0.123697917 4.37988281,0.37109375 L3.94042969,1.5234375 C3.70605469,1.42903646 3.48795573,1.35172526 3.28613281,1.29150391 C3.0843099,1.23128255 2.88248698,1.20117188 2.68066406,1.20117188 C1.90592448,1.20117188 1.51855469,1.75130208 1.51855469,2.8515625 C1.51855469,3.91927083 1.90592448,4.453125 2.68066406,4.453125 C2.9671224,4.453125 3.23242188,4.4148763 3.4765625,4.33837891 C3.72070312,4.26188151 3.96484375,4.1422526 4.20898438,3.97949219 L4.20898438,5.25390625 C3.96809896,5.40690104 3.72477214,5.51269531 3.47900391,5.57128906 C3.23323568,5.62988281 2.92317708,5.65917969 2.54882812,5.65917969 C0.849609375,5.65917969 0,4.7265625 0,2.86132812 C0,1.93359375 0.231119792,1.22477214 0.693359375,0.734863281 C1.15559896,0.244954427 1.81803385,0 2.68066406,0 Z"></path></clipPath><clipPath id="i84"><path d="M3.73046875,0 C4.46289062,0 5.16927083,0.146484375 5.84960938,0.439453125 L5.34667969,1.65039062 C4.82584635,1.38997396 4.28385417,1.25976562 3.72070312,1.25976562 C3.06640625,1.25976562 2.54231771,1.47949219 2.1484375,1.91894531 C1.75455729,2.35839844 1.55761719,2.94921875 1.55761719,3.69140625 C1.55761719,4.46614583 1.71630859,5.05777995 2.03369141,5.46630859 C2.35107422,5.87483724 2.8125,6.07910156 3.41796875,6.07910156 C3.73372396,6.07910156 4.05436198,6.04654948 4.37988281,5.98144531 L4.37988281,4.4921875 L3.02734375,4.4921875 L3.02734375,3.23242188 L5.859375,3.23242188 L5.859375,6.93359375 C5.40039062,7.08333333 4.96826172,7.1883138 4.56298828,7.24853516 C4.15771484,7.30875651 3.74348958,7.33886719 3.3203125,7.33886719 C2.24283854,7.33886719 1.42008464,7.02229818 0.852050781,6.38916016 C0.284016927,5.75602214 0,4.84700521 0,3.66210938 C0,2.50976562 0.329589844,1.61132812 0.988769531,0.966796875 C1.64794922,0.322265625 2.56184896,0 3.73046875,0 Z"></path></clipPath><clipPath id="i85"><path d="M2.16308594,0 C2.82063802,0 3.46028646,0.143229167 4.08203125,0.4296875 L3.6328125,1.50390625 C3.359375,1.38671875 3.10384115,1.2906901 2.86621094,1.21582031 C2.62858073,1.14095052 2.38606771,1.10351562 2.13867188,1.10351562 C1.69921875,1.10351562 1.47949219,1.22233073 1.47949219,1.45996094 C1.47949219,1.59342448 1.55029297,1.70898438 1.69189453,1.80664062 C1.83349609,1.90429688 2.14355469,2.04915365 2.62207031,2.24121094 C3.0485026,2.41373698 3.3610026,2.57486979 3.55957031,2.72460938 C3.75813802,2.87434896 3.9046224,3.046875 3.99902344,3.2421875 C4.09342448,3.4375 4.140625,3.6702474 4.140625,3.94042969 C4.140625,4.50032552 3.9461263,4.92675781 3.55712891,5.21972656 C3.16813151,5.51269531 2.58626302,5.65917969 1.81152344,5.65917969 C1.41438802,5.65917969 1.07584635,5.63232422 0.795898438,5.57861328 C0.515950521,5.52490234 0.25390625,5.44596354 0.009765625,5.34179688 L0.009765625,4.11132812 C0.286458333,4.24153646 0.598144531,4.35058594 0.944824219,4.43847656 C1.29150391,4.52636719 1.59667969,4.5703125 1.86035156,4.5703125 C2.40071615,4.5703125 2.67089844,4.4140625 2.67089844,4.1015625 C2.67089844,3.984375 2.63509115,3.88916016 2.56347656,3.81591797 C2.49186198,3.74267578 2.36816406,3.65966797 2.19238281,3.56689453 C2.01660156,3.47412109 1.78222656,3.36588542 1.48925781,3.2421875 C1.06933594,3.06640625 0.760904948,2.90364583 0.563964844,2.75390625 C0.36702474,2.60416667 0.223795573,2.43245443 0.134277344,2.23876953 C0.0447591146,2.04508464 0,1.80664062 0,1.5234375 C0,1.03841146 0.187988281,0.663248698 0.563964844,0.397949219 C0.939941406,0.13264974 1.47298177,0 2.16308594,0 Z"></path></clipPath><clipPath id="i86"><path d="M2.20214844,0 L2.20214844,1.16210938 L3.73046875,1.16210938 L3.73046875,2.28027344 L2.20214844,2.28027344 L2.20214844,4.91210938 C2.20214844,5.12369792 2.26155599,5.27994792 2.38037109,5.38085938 C2.4991862,5.48177083 2.65625,5.53222656 2.8515625,5.53222656 C3.11197917,5.53222656 3.42447917,5.47526042 3.7890625,5.36132812 L3.7890625,6.46972656 C3.41796875,6.63574219 2.96223958,6.71875 2.421875,6.71875 C1.82617188,6.71875 1.39241536,6.56819661 1.12060547,6.26708984 C0.848795573,5.96598307 0.712890625,5.51432292 0.712890625,4.91210938 L0.712890625,2.28027344 L0,2.28027344 L0,1.65039062 L0.8203125,1.15234375 L1.25,0 L2.20214844,0 Z"></path></clipPath><clipPath id="i87"><path d="M3.10058594,0 C3.73535156,0 4.2171224,0.17171224 4.54589844,0.515136719 C4.87467448,0.858561198 5.0390625,1.35416667 5.0390625,2.00195312 L5.0390625,5.56152344 L3.54980469,5.56152344 L3.54980469,2.37304688 C3.54980469,1.97916667 3.47981771,1.68375651 3.33984375,1.48681641 C3.19986979,1.2898763 2.97688802,1.19140625 2.67089844,1.19140625 C2.25423177,1.19140625 1.953125,1.33056641 1.76757812,1.60888672 C1.58203125,1.88720703 1.48925781,2.34863281 1.48925781,2.99316406 L1.48925781,5.56152344 L0,5.56152344 L0,0.102539062 L1.13769531,0.102539062 L1.33789063,0.80078125 L1.42089844,0.80078125 C1.58691406,0.537109375 1.81559245,0.337727865 2.10693359,0.202636719 C2.39827474,0.0675455729 2.72949219,0 3.10058594,0 Z"></path></clipPath><clipPath id="i88"><path d="M6.41113281,0 C7.0296224,0 7.49755859,0.158691406 7.81494141,0.476074219 C8.13232422,0.793457031 8.29101562,1.30208333 8.29101562,2.00195312 L8.29101562,5.56152344 L6.796875,5.56152344 L6.796875,2.37304688 C6.796875,1.97916667 6.73095703,1.68375651 6.59912109,1.48681641 C6.46728516,1.2898763 6.25976562,1.19140625 5.9765625,1.19140625 C5.61197917,1.19140625 5.33935547,1.32161458 5.15869141,1.58203125 C4.97802734,1.84244792 4.88769531,2.25585938 4.88769531,2.82226562 L4.88769531,5.56152344 L3.3984375,5.56152344 L3.3984375,2.37304688 C3.3984375,1.97916667 3.33251953,1.68375651 3.20068359,1.48681641 C3.06884766,1.2898763 2.86132812,1.19140625 2.578125,1.19140625 C2.19726562,1.19140625 1.92057292,1.33138021 1.74804688,1.61132812 C1.57552083,1.89127604 1.48925781,2.35188802 1.48925781,2.99316406 L1.48925781,5.56152344 L0,5.56152344 L0,0.102539062 L1.13769531,0.102539062 L1.33789062,0.80078125 L1.42089844,0.80078125 C1.56738281,0.550130208 1.77897135,0.354003906 2.05566406,0.212402344 C2.33235677,0.0708007812 2.64973958,0 3.0078125,0 C3.82486979,0 4.37825521,0.266927083 4.66796875,0.80078125 L4.79980469,0.80078125 C4.94628906,0.546875 5.16194661,0.349934896 5.44677734,0.209960938 C5.73160807,0.0699869792 6.0530599,0 6.41113281,0 Z"></path></clipPath><clipPath id="i89"><path d="M3.10058594,0 C3.73535156,0 4.2171224,0.17171224 4.54589844,0.515136719 C4.87467448,0.858561198 5.0390625,1.35416667 5.0390625,2.00195312 L5.0390625,5.56152344 L3.54980469,5.56152344 L3.54980469,2.37304688 C3.54980469,1.97916667 3.47981771,1.68375651 3.33984375,1.48681641 C3.19986979,1.2898763 2.97688802,1.19140625 2.67089844,1.19140625 C2.25423177,1.19140625 1.953125,1.33056641 1.76757812,1.60888672 C1.58203125,1.88720703 1.48925781,2.34863281 1.48925781,2.99316406 L1.48925781,5.56152344 L0,5.56152344 L0,0.102539062 L1.13769531,0.102539062 L1.33789063,0.80078125 L1.42089844,0.80078125 C1.58691406,0.537109375 1.81559245,0.337727865 2.10693359,0.202636719 C2.39827474,0.0675455729 2.72949219,0 3.10058594,0 Z"></path></clipPath><clipPath id="i90"><path d="M2.16308594,0 C2.82063802,0 3.46028646,0.143229167 4.08203125,0.4296875 L3.6328125,1.50390625 C3.359375,1.38671875 3.10384115,1.2906901 2.86621094,1.21582031 C2.62858073,1.14095052 2.38606771,1.10351562 2.13867188,1.10351562 C1.69921875,1.10351562 1.47949219,1.22233073 1.47949219,1.45996094 C1.47949219,1.59342448 1.55029297,1.70898438 1.69189453,1.80664062 C1.83349609,1.90429688 2.14355469,2.04915365 2.62207031,2.24121094 C3.0485026,2.41373698 3.3610026,2.57486979 3.55957031,2.72460938 C3.75813802,2.87434896 3.9046224,3.046875 3.99902344,3.2421875 C4.09342448,3.4375 4.140625,3.6702474 4.140625,3.94042969 C4.140625,4.50032552 3.9461263,4.92675781 3.55712891,5.21972656 C3.16813151,5.51269531 2.58626302,5.65917969 1.81152344,5.65917969 C1.41438802,5.65917969 1.07584635,5.63232422 0.795898438,5.57861328 C0.515950521,5.52490234 0.25390625,5.44596354 0.009765625,5.34179688 L0.009765625,4.11132812 C0.286458333,4.24153646 0.598144531,4.35058594 0.944824219,4.43847656 C1.29150391,4.52636719 1.59667969,4.5703125 1.86035156,4.5703125 C2.40071615,4.5703125 2.67089844,4.4140625 2.67089844,4.1015625 C2.67089844,3.984375 2.63509115,3.88916016 2.56347656,3.81591797 C2.49186198,3.74267578 2.36816406,3.65966797 2.19238281,3.56689453 C2.01660156,3.47412109 1.78222656,3.36588542 1.48925781,3.2421875 C1.06933594,3.06640625 0.760904948,2.90364583 0.563964844,2.75390625 C0.36702474,2.60416667 0.223795573,2.43245443 0.134277344,2.23876953 C0.0447591146,2.04508464 0,1.80664062 0,1.5234375 C0,1.03841146 0.187988281,0.663248698 0.563964844,0.397949219 C0.939941406,0.13264974 1.47298177,0 2.16308594,0 Z"></path></clipPath><clipPath id="i91"><path d="M2.20214844,0 L2.20214844,1.16210938 L3.73046875,1.16210938 L3.73046875,2.28027344 L2.20214844,2.28027344 L2.20214844,4.91210938 C2.20214844,5.12369792 2.26155599,5.27994792 2.38037109,5.38085938 C2.4991862,5.48177083 2.65625,5.53222656 2.8515625,5.53222656 C3.11197917,5.53222656 3.42447917,5.47526042 3.7890625,5.36132812 L3.7890625,6.46972656 C3.41796875,6.63574219 2.96223958,6.71875 2.421875,6.71875 C1.82617188,6.71875 1.39241536,6.56819661 1.12060547,6.26708984 C0.848795573,5.96598307 0.712890625,5.51432292 0.712890625,4.91210938 L0.712890625,2.28027344 L0,2.28027344 L0,1.65039062 L0.8203125,1.15234375 L1.25,0 L2.20214844,0 Z"></path></clipPath><clipPath id="i92"><path d="M3.046875,0 C3.24869792,0 3.41634115,0.0146484375 3.54980469,0.0439453125 L3.4375,1.44042969 C3.31705729,1.4078776 3.17057292,1.39160156 2.99804688,1.39160156 C2.52278646,1.39160156 2.15250651,1.51367188 1.88720703,1.7578125 C1.62190755,2.00195312 1.48925781,2.34375 1.48925781,2.78320312 L1.48925781,5.56152344 L0,5.56152344 L0,0.102539062 L1.12792969,0.102539062 L1.34765625,1.02050781 L1.42089844,1.02050781 C1.59016927,0.714518229 1.81884766,0.467936198 2.10693359,0.280761719 C2.39501953,0.0935872396 2.70833333,0 3.046875,0 Z"></path></clipPath><clipPath id="i93"><path d="M1.55761719,0 L2.61230469,3.11035156 C2.72949219,3.50423177 2.80273438,3.87695312 2.83203125,4.22851562 L2.86132812,4.22851562 C2.87760417,3.91601562 2.95084635,3.54329427 3.08105469,3.11035156 L4.13085938,0 L5.68847656,0 L3.60839844,5.45898438 L2.08007812,5.45898438 L0,0 L1.55761719,0 Z"></path></clipPath><clipPath id="i94"><path d="M1.40136719,0 C1.84733073,0 2.19238281,0.133463542 2.43652344,0.400390625 C2.68066406,0.667317708 2.80273438,1.04980469 2.80273438,1.54785156 C2.80273438,2.04264323 2.67985026,2.42513021 2.43408203,2.6953125 C2.1883138,2.96549479 1.84407552,3.10058594 1.40136719,3.10058594 C0.952148438,3.10058594 0.606282552,2.96549479 0.363769531,2.6953125 C0.12125651,2.42513021 0,2.04264323 0,1.54785156 C0,1.04654948 0.120442708,0.663248698 0.361328125,0.397949219 C0.602213542,0.13264974 0.948893229,0 1.40136719,0 Z"></path></clipPath><clipPath id="i95"><path d="M1.40136719,0 C1.84733073,0 2.19238281,0.133463542 2.43652344,0.400390625 C2.68066406,0.667317708 2.80273438,1.04980469 2.80273438,1.54785156 C2.80273438,2.04264323 2.67985026,2.42513021 2.43408203,2.6953125 C2.1883138,2.96549479 1.84407552,3.10058594 1.40136719,3.10058594 C0.952148438,3.10058594 0.606282552,2.96549479 0.363769531,2.6953125 C0.12125651,2.42513021 0,2.04264323 0,1.54785156 C0,1.04654948 0.120442708,0.663248698 0.361328125,0.397949219 C0.602213542,0.13264974 0.948893229,0 1.40136719,0 Z"></path></clipPath><clipPath id="i96"><path d="M1.40136719,0 C1.84733073,0 2.19238281,0.133463542 2.43652344,0.400390625 C2.68066406,0.667317708 2.80273438,1.04980469 2.80273438,1.54785156 C2.80273438,2.04264323 2.67985026,2.42513021 2.43408203,2.6953125 C2.1883138,2.96549479 1.84407552,3.10058594 1.40136719,3.10058594 C0.952148438,3.10058594 0.606282552,2.96549479 0.363769531,2.6953125 C0.12125651,2.42513021 0,2.04264323 0,1.54785156 C0,1.04654948 0.120442708,0.663248698 0.361328125,0.397949219 C0.602213542,0.13264974 0.948893229,0 1.40136719,0 Z"></path></clipPath><clipPath id="i97"><path d="M2.28027344,0 C3.14615885,0 3.80452474,0.186360677 4.25537109,0.559082031 C4.70621745,0.931803385 4.93164062,1.48763021 4.93164062,2.2265625 C4.93164062,2.99479167 4.69156901,3.58235677 4.21142578,3.98925781 C3.73128255,4.39615885 3.0485026,4.59960938 2.16308594,4.59960938 L1.51367188,4.59960938 L1.51367188,7.13867188 L0,7.13867188 L0,0 L2.28027344,0 Z M2.20214844,1.24023438 L1.51367188,1.24023438 L1.51367188,3.359375 L2.01171875,3.359375 C2.47721354,3.359375 2.82552083,3.26741536 3.05664062,3.08349609 C3.28776042,2.89957682 3.40332031,2.63183594 3.40332031,2.28027344 C3.40332031,1.92545573 3.30647786,1.66341146 3.11279297,1.49414062 C2.91910807,1.32486979 2.6155599,1.24023438 2.20214844,1.24023438 Z"></path></clipPath><clipPath id="i98"><path d="M2.68066406,0 C3.31217448,0 3.87858073,0.123697917 4.37988281,0.37109375 L3.94042969,1.5234375 C3.70605469,1.42903646 3.48795573,1.35172526 3.28613281,1.29150391 C3.0843099,1.23128255 2.88248698,1.20117188 2.68066406,1.20117188 C1.90592448,1.20117188 1.51855469,1.75130208 1.51855469,2.8515625 C1.51855469,3.91927083 1.90592448,4.453125 2.68066406,4.453125 C2.9671224,4.453125 3.23242188,4.4148763 3.4765625,4.33837891 C3.72070312,4.26188151 3.96484375,4.1422526 4.20898438,3.97949219 L4.20898438,5.25390625 C3.96809896,5.40690104 3.72477214,5.51269531 3.47900391,5.57128906 C3.23323568,5.62988281 2.92317708,5.65917969 2.54882812,5.65917969 C0.849609375,5.65917969 0,4.7265625 0,2.86132812 C0,1.93359375 0.231119792,1.22477214 0.693359375,0.734863281 C1.15559896,0.244954427 1.81803385,0 2.68066406,0 Z"></path></clipPath><clipPath id="i99"><path d="M1.48925781,0 L1.48925781,3.38867188 L1.41113281,4.62890625 L1.43066406,4.62890625 L2.08007812,3.79882812 L3.60839844,2.13867188 L5.28808594,2.13867188 L3.12011719,4.50683594 L5.41992188,7.59765625 L3.70117188,7.59765625 L2.12890625,5.38574219 L1.48925781,5.8984375 L1.48925781,7.59765625 L0,7.59765625 L0,0 L1.48925781,0 Z"></path></clipPath><clipPath id="i100"><path d="M2.74902344,0 C3.26334635,0 3.72070312,0.0764973958 4.12109375,0.229492188 L3.74023438,1.32324219 C3.44075521,1.22884115 3.1640625,1.18164062 2.91015625,1.18164062 C2.69856771,1.18164062 2.54557292,1.24430339 2.45117188,1.36962891 C2.35677083,1.49495443 2.30957031,1.65527344 2.30957031,1.85058594 L2.30957031,2.19238281 L3.59863281,2.19238281 L3.59863281,3.31054688 L2.30957031,3.31054688 L2.30957031,7.65136719 L0.8203125,7.65136719 L0.8203125,3.31054688 L0,3.31054688 L0,2.59277344 L0.8203125,2.19238281 L0.8203125,1.79199219 C0.8203125,1.1702474 0.973307292,0.716145833 1.27929688,0.4296875 C1.58528646,0.143229167 2.07519531,0 2.74902344,0 Z M6.62109375,0 C7.13541667,0 7.59277344,0.0764973958 7.99316406,0.229492188 L7.61230469,1.32324219 C7.31282552,1.22884115 7.03613281,1.18164062 6.78222656,1.18164062 C6.57063802,1.18164062 6.41764323,1.24430339 6.32324219,1.36962891 C6.22884115,1.49495443 6.18164062,1.65527344 6.18164062,1.85058594 L6.18164062,2.19238281 L7.47070312,2.19238281 L7.47070312,3.31054688 L6.18164062,3.31054688 L6.18164062,7.65136719 L4.69238281,7.65136719 L4.69238281,3.31054688 L3.87207031,3.31054688 L3.87207031,2.59277344 L4.69238281,2.19238281 L4.69238281,1.79199219 C4.69238281,1.1702474 4.8453776,0.716145833 5.15136719,0.4296875 C5.45735677,0.143229167 5.94726562,0 6.62109375,0 Z M9.79980469,2.19238281 L9.79980469,7.65136719 L8.31054688,7.65136719 L8.31054688,2.19238281 L9.79980469,2.19238281 Z M9.05761719,0.0537109375 C9.59798177,0.0537109375 9.86816406,0.296223958 9.86816406,0.78125 C9.86816406,1.01236979 9.80061849,1.19222005 9.66552734,1.32080078 C9.5304362,1.44938151 9.32779948,1.51367188 9.05761719,1.51367188 C8.5172526,1.51367188 8.24707031,1.26953125 8.24707031,0.78125 C8.24707031,0.296223958 8.5172526,0.0537109375 9.05761719,0.0537109375 Z"></path></clipPath><clipPath id="i101"><path d="M2.68066406,0 C3.31217448,0 3.87858073,0.123697917 4.37988281,0.37109375 L3.94042969,1.5234375 C3.70605469,1.42903646 3.48795573,1.35172526 3.28613281,1.29150391 C3.0843099,1.23128255 2.88248698,1.20117188 2.68066406,1.20117188 C1.90592448,1.20117188 1.51855469,1.75130208 1.51855469,2.8515625 C1.51855469,3.91927083 1.90592448,4.453125 2.68066406,4.453125 C2.9671224,4.453125 3.23242188,4.4148763 3.4765625,4.33837891 C3.72070312,4.26188151 3.96484375,4.1422526 4.20898438,3.97949219 L4.20898438,5.25390625 C3.96809896,5.40690104 3.72477214,5.51269531 3.47900391,5.57128906 C3.23323568,5.62988281 2.92317708,5.65917969 2.54882812,5.65917969 C0.849609375,5.65917969 0,4.7265625 0,2.86132812 C0,1.93359375 0.231119792,1.22477214 0.693359375,0.734863281 C1.15559896,0.244954427 1.81803385,0 2.68066406,0 Z"></path></clipPath></defs><g clip-path="url(#i0)"><polygon points="0,0 260,0 260,202 0,202 0,0" stroke="none" fill="#D7D7D7"></polygon><g transform="translate(-23.0 -15.0)"><g transform="translate(0.0 7.0)"><g clip-path="url(#i1)"><polygon points="23,8 42,8 42,210 23,210 23,8" stroke="none" fill="url(#i2)"></polygon></g></g><g transform="translate(42.0 7.0)"><g clip-path="url(#i3)"><polygon points="0,8 180,8 180,210 0,210 0,8" stroke="none" fill="#576B7B"></polygon></g></g><g transform="translate(327.0 7.0) scale(-1.0 1.0)"><g clip-path="url(#i4)"><polygon points="44,8 105,8 105,210 44,210 44,8" stroke="none" fill="#FFFFFF"></polygon></g></g><g transform="translate(242.0 5.0)"><g transform="translate(0.0 169.9406880189817)"><g clip-path="url(#i5)"><polygon points="0,0 41,0 41,7.00830368 0,7.00830368 0,0" stroke="none" fill="#C0C0C0"></polygon></g></g><g transform="translate(3.0 208.0)"><g transform="translate(6.0 0.0)"><g clip-path="url(#i6)"><polygon points="0,0 32,0 32,4 0,4 0,0" stroke="none" fill="#C0C0C0"></polygon></g></g><g transform="translate(0.0 2.5195729537372245)"><g clip-path="url(#i7)"><polygon points="0,0 3,0 3,1.48042705 0,1.48042705 0,0" stroke="none" fill="#C0C0C0"></polygon></g></g></g><g transform="translate(8.999999999999751 182.95492289442348)"><g clip-path="url(#i8)"><polygon points="0,0 32,0 32,7.00830368 0,7.00830368 0,0" stroke="none" fill="#C0C0C0"></polygon></g></g><g transform="translate(0.09761393199639201 159.4294187425877)"><g clip-path="url(#i9)"><polygon points="0,0 40.9023861,0 40.9023861,7.00830368 0,7.00830368 0,0" stroke="none" fill="#C0C0C0"></polygon></g></g><g transform="translate(9.000000000000007 193.4661921708177)"><g clip-path="url(#i10)"><polygon points="0,0 32,0 32,7.00830368 0,7.00830368 0,0" stroke="none" fill="#C0C0C0"></polygon></g></g><g transform="translate(3.0 185.0)"><g clip-path="url(#i7)"><polygon points="0,0 3,0 3,3 0,3 0,0" stroke="none" fill="#C0C0C0"></polygon></g></g><g transform="translate(0.034416458497616986 90.35231316725924)"><g clip-path="url(#i5)"><polygon points="0,0 40.9655835,0 40.9655835,7.00830368 0,7.00830368 0,0" stroke="none" fill="#C0C0C0"></polygon></g></g><g transform="translate(0.034416458497616986 79.84104389086872)"><g clip-path="url(#i11)"><polygon points="0,0 40.9655835,0 40.9655835,7.00830368 0,7.00830368 0,0" stroke="none" fill="#C0C0C0"></polygon></g></g><g transform="translate(9.0 126.89205219454388)"><g clip-path="url(#i12)"><polygon points="0,0 32,0 32,7.00830368 0,7.00830368 0,0" stroke="none" fill="#C0C0C0"></polygon></g></g><g transform="translate(0.034416458497616986 12.01423487544525)"><g clip-path="url(#i13)"><polygon points="0,0 40.9655835,0 40.9655835,7.00830368 0,7.00830368 0,0" stroke="none" fill="#C0C0C0"></polygon></g></g><g transform="translate(9.0 103.3665480427045)"><g clip-path="url(#i14)"><polygon points="0,0 32,0 32,7.00830368 0,7.00830368 0,0" stroke="none" fill="#C0C0C0"></polygon></g></g><g transform="translate(8.999999999999694 137.4033214709381)"><g clip-path="url(#i15)"><polygon points="0,0 32,0 32,7.00830368 0,7.00830368 0,0" stroke="none" fill="#C0C0C0"></polygon></g></g><g transform="translate(0.03441645849670749 24.02846975089051)"><g clip-path="url(#i16)"><polygon points="0,0 40.9655835,0 40.9655835,7.00830368 0,7.00830368 0,0" stroke="none" fill="#C0C0C0"></polygon></g></g><g transform="translate(0.0 49.06049822064233)"><g clip-path="url(#i17)"><polygon points="0,0 41,0 41,2.5029656 0,2.5029656 0,0" stroke="none" fill="#C0C0C0"></polygon></g></g><g transform="translate(9.0 113.87781731909868)"><g clip-path="url(#i14)"><polygon points="0,0 32,0 32,7.00830368 0,7.00830368 0,0" stroke="none" fill="#C0C0C0"></polygon></g></g><g transform="translate(3.0 106.0)"><g clip-path="url(#i7)"><polygon points="0,0 3,0 3,3 0,3 0,0" stroke="none" fill="#C0C0C0"></polygon></g></g><g transform="translate(3.0 129.0)"><g clip-path="url(#i7)"><polygon points="0,0 3,0 3,3 0,3 0,0" stroke="none" fill="#C0C0C0"></polygon></g></g><g transform="translate(0.9520969700106647 60.11799525504378)"><g transform="translate(0.0 0.059999999997671694)"><g clip-path="url(#i18)"><polygon points="0,0 6.528,0 6.528,8.4 0,8.4 0,0" stroke="none" fill="#3F3F41" opacity="50%"></polygon></g></g><g transform="translate(7.188000000000101 0.059999999997671694)"><g clip-path="url(#i19)"><polygon points="0,0 8.412,0 8.412,8.4 0,8.4 0,0" stroke="none" fill="#3F3F41" opacity="50%"></polygon></g></g><g transform="translate(16.66799999999967 0.059999999997671694)"><g clip-path="url(#i20)"><polygon points="0,0 6.924,0 6.924,8.4 0,8.4 0,0" stroke="none" fill="#3F3F41" opacity="50%"></polygon></g></g><g transform="translate(24.80400000000009 0.059999999997671694)"><g clip-path="url(#i21)"><polygon points="0,0 6.528,0 6.528,8.4 0,8.4 0,0" stroke="none" fill="#3F3F41" opacity="50%"></polygon></g></g><g transform="translate(32.81999999999971 0.059999999997671694)"><g clip-path="url(#i22)"><polygon points="0,0 7.22790303,0 7.22790303,8.4 0,8.4 0,0" stroke="none" fill="#3F3F41" opacity="50%"></polygon></g></g></g></g><g transform="translate(72.0 0.0)"><g transform="translate(0.0 32.0)"><g transform="translate(0.19200000000000017 35.7)"><g transform="translate(0.0 0.7919999999976426)"><g clip-path="url(#i23)"><polygon points="0,0 7.26,0 7.26,8.58 0,8.58 0,0" stroke="none" fill="#FFFFFF"></polygon></g></g><g transform="translate(7.872000000000298 2.723999999998341)"><g clip-path="url(#i24)"><polygon points="0,0 6.276,0 6.276,6.672 0,6.672 0,0" stroke="none" fill="#FFFFFF"></polygon></g></g><g transform="translate(14.71200000000044 2.808000000000902)"><g clip-path="url(#i25)"><polygon points="0,0 7.056,0 7.056,6.492 0,6.492 0,0" stroke="none" fill="#FFFFFF"></polygon></g></g><g transform="translate(21.96000000000004 2.736000000000786)"><g clip-path="url(#i26)"><polygon points="0,0 7.092,0 7.092,6.636 0,6.636 0,0" stroke="none" fill="#FFFFFF"></polygon></g></g><g transform="translate(30.14400000000023 0.0)"><g clip-path="url(#i27)"><polygon points="0,0 2.124,0 2.124,9.3 0,9.3 0,0" stroke="none" fill="#FFFFFF"></polygon></g></g><g transform="translate(33.89999999999965 2.7239999999983406)"><g clip-path="url(#i28)"><polygon points="0,0 4.224,0 4.224,6.576 0,6.576 0,0" stroke="none" fill="#FFFFFF"></polygon></g></g><g transform="translate(38.90399999999954 4.932000000000698)"><g clip-path="url(#i29)"><polygon points="0,0 3.18,0 3.18,1.368 0,1.368 0,0" stroke="none" fill="#FFFFFF"></polygon></g></g><g transform="translate(43.06800000000021 0.2998675706294307)"><g clip-path="url(#i30)"><polygon points="0,-1.65096886e-16 5.22,-1.65096886e-16 5.22,9.00013243 0,9.00013243 0,-1.65096886e-16" stroke="none" fill="#FFFFFF"></polygon></g></g><g transform="translate(47.735999999999876 2.723999999998341)"><g clip-path="url(#i31)"><polygon points="0,0 6.276,0 6.276,6.672 0,6.672 0,0" stroke="none" fill="#FFFFFF"></polygon></g></g><g transform="translate(55.45200000000023 0.0)"><g clip-path="url(#i32)"><polygon points="0,0 2.124,0 2.124,9.3 0,9.3 0,0" stroke="none" fill="#FFFFFF"></polygon></g></g><g transform="translate(59.20799999999963 2.7239999999983406)"><g clip-path="url(#i28)"><polygon points="0,0 4.224,0 4.224,6.576 0,6.576 0,0" stroke="none" fill="#FFFFFF"></polygon></g></g><g transform="translate(63.84000000000015 2.736000000000786)"><g clip-path="url(#i33)"><polygon points="0,0 6.67203104,0 6.67203104,6.636 0,6.636 0,0" stroke="none" fill="#FFFFFF"></polygon></g></g></g><g transform="translate(0.19200000000000728 95.70000000000073)"><g transform="translate(0.0 0.7919999999976426)"><g clip-path="url(#i34)"><polygon points="0,0 7.26,0 7.26,8.58 0,8.58 0,0" stroke="none" fill="#FFFFFF"></polygon></g></g><g transform="translate(7.872000000000298 2.723999999998341)"><g clip-path="url(#i35)"><polygon points="0,0 6.276,0 6.276,6.672 0,6.672 0,0" stroke="none" fill="#FFFFFF"></polygon></g></g><g transform="translate(14.71200000000044 2.808000000000902)"><g clip-path="url(#i36)"><polygon points="0,0 7.056,0 7.056,6.492 0,6.492 0,0" stroke="none" fill="#FFFFFF"></polygon></g></g><g transform="translate(21.96000000000004 2.736000000000786)"><g clip-path="url(#i37)"><polygon points="0,0 7.092,0 7.092,6.636 0,6.636 0,0" stroke="none" fill="#FFFFFF"></polygon></g></g><g transform="translate(30.14400000000023 0.0)"><g clip-path="url(#i38)"><polygon points="0,0 2.124,0 2.124,9.3 0,9.3 0,0" stroke="none" fill="#FFFFFF"></polygon></g></g><g transform="translate(33.89999999999965 2.723999999998341)"><g clip-path="url(#i39)"><polygon points="0,0 4.224,0 4.224,6.576 0,6.576 0,0" stroke="none" fill="#FFFFFF"></polygon></g></g><g transform="translate(38.90399999999954 4.932000000000698)"><g clip-path="url(#i40)"><polygon points="0,0 3.18,0 3.18,1.368 0,1.368 0,0" stroke="none" fill="#FFFFFF"></polygon></g></g><g transform="translate(43.03200000000015 0.15599999999903957)"><g clip-path="url(#i41)"><polygon points="0,0 6.67203104,0 6.67203104,9.216 0,9.216 0,0" stroke="none" fill="#FFFFFF"></polygon></g></g><g transform="translate(50.19599999999991 1.319999999999709)"><g clip-path="url(#i42)"><polygon points="0,0 4.824,0 4.824,8.07614294 0,8.07614294 0,0" stroke="none" fill="#FFFFFF"></polygon></g></g><g transform="translate(56.039999999999964 2.723999999998341)"><g clip-path="url(#i39)"><polygon points="0,0 4.224,0 4.224,6.576 0,6.576 0,0" stroke="none" fill="#FFFFFF"></polygon></g></g><g transform="translate(60.67199999999957 2.736000000000786)"><g clip-path="url(#i43)"><polygon points="0,0 6.67203104,0 6.67203104,6.636 0,6.636 0,0" stroke="none" fill="#FFFFFF"></polygon></g></g></g><g transform="translate(0.22800000000000153 7.816)"><g transform="translate(0.0 2.7000000000007285)"><g clip-path="url(#i44)"><polygon points="0,0 8.004,0 8.004,8.592 0,8.592 0,0" stroke="none" fill="#FFFFFF"></polygon></g></g><g transform="translate(8.648000000000138 2.7000000000007285)"><g clip-path="url(#i45)"><polygon points="0,0 9.168,0 9.168,8.592 0,8.592 0,0" stroke="none" fill="#FFFFFF"></polygon></g></g><g transform="translate(19.2519999999995 2.772000000000844)"><g clip-path="url(#i46)"><polygon points="0,0 9.408,0 9.408,8.412 0,8.412 0,0" stroke="none" fill="#FFFFFF"></polygon></g></g><g transform="translate(30.576000000000015 2.772000000000844)"><g clip-path="url(#i47)"><polygon points="0,0 7.236,0 7.236,8.412 0,8.412 0,0" stroke="none" fill="#FFFFFF"></polygon></g></g><g transform="translate(39.27199999999992 0.0)"><g clip-path="url(#i48)"><polygon points="0,0 6.996,0 6.996,11.184 0,11.184 0,0" stroke="none" fill="#FFFFFF"></polygon></g></g><g transform="translate(47.33200000000033 2.772000000000844)"><g clip-path="url(#i49)"><polygon points="0,0 7.392,0 7.392,8.412 0,8.412 0,0" stroke="none" fill="#FFFFFF"></polygon></g></g><g transform="translate(56.003999999999905 2.772000000000844)"><g clip-path="url(#i50)"><polygon points="0,0 6.996,0 6.996,8.412 0,8.412 0,0" stroke="none" fill="#FFFFFF"></polygon></g></g><g transform="translate(64.69999999999982 2.772000000000844)"><g clip-path="url(#i51)"><polygon points="0,0 7.98,0 7.98,8.412 0,8.412 0,0" stroke="none" fill="#FFFFFF"></polygon></g></g><g transform="translate(74.11599999999999 2.7000000000007285)"><g clip-path="url(#i52)"><polygon points="0,0 8.004,0 8.004,8.592 0,8.592 0,0" stroke="none" fill="#FFFFFF"></polygon></g></g><g transform="translate(83.3760000000002 2.772000000000844)"><g clip-path="url(#i53)"><polygon points="0,0 6.996,0 6.996,8.412 0,8.412 0,0" stroke="none" fill="#FFFFFF"></polygon></g></g><g transform="translate(91.50799999999981 2.6640000000006694)"><g clip-path="url(#i54)"><polygon points="0,0 7.536,0 7.536,8.592 0,8.592 0,0" stroke="none" fill="#FFFFFF"></polygon></g></g></g><g clip-path="url(#i55)"><polygon points="0,0 150,0 150,2 0,2 0,0" stroke="none" fill="#FFFFFF"></polygon></g><g transform="translate(19.8984375 116.3388671875)"><g transform="translate(0.0 0.5224609375)"><g clip-path="url(#i56)"><polygon points="0,0 4.11132812,0 4.11132812,7.13867188 0,7.13867188 0,0" stroke="none" fill="#FFFFFF"></polygon></g></g><g transform="translate(5.1513671875 2.099609375)"><g clip-path="url(#i57)"><polygon points="0,0 4.140625,0 4.140625,5.65917969 0,5.65917969 0,0" stroke="none" fill="#FFFFFF"></polygon></g></g><g transform="translate(10.4541015625 2.099609375)"><g clip-path="url(#i58)"><polygon points="0,0 5.09765625,0 5.09765625,7.96386719 0,7.96386719 0,0" stroke="none" fill="#FFFFFF"></polygon></g></g><g transform="translate(16.7822265625 2.099609375)"><g clip-path="url(#i59)"><polygon points="0,0 3.54980469,0 3.54980469,5.56152344 0,5.56152344 0,0" stroke="none" fill="#FFFFFF"></polygon></g></g><g transform="translate(21.259765625 0.0634765625)"><g clip-path="url(#i60)"><polygon points="0,0 1.62109375,0 1.62109375,7.59765625 0,7.59765625 0,0" stroke="none" fill="#FFFFFF"></polygon></g></g><g transform="translate(23.8232421875 1.0400390625)"><g clip-path="url(#i61)"><polygon points="0,0 3.7890625,0 3.7890625,6.71875 0,6.71875 0,0" stroke="none" fill="#FFFFFF"></polygon></g></g><g transform="translate(30.9814453125 0.0634765625)"><g clip-path="url(#i62)"><polygon points="0,0 5.10253906,0 5.10253906,7.6953125 0,7.6953125 0,0" stroke="none" fill="#FFFFFF"></polygon></g></g><g transform="translate(37.509765625 0.5224609375)"><g clip-path="url(#i63)"><polygon points="0,0 1.36230469,0 1.36230469,2.578125 0,2.578125 0,0" stroke="none" fill="#FFFFFF"></polygon></g></g><g transform="translate(39.970703125 0.0)"><g clip-path="url(#i64)"><polygon points="0,0 5.02929688,0 5.02929688,7.75878906 0,7.75878906 0,0" stroke="none" fill="#FFFFFF"></polygon></g></g><g transform="translate(45.87890625 2.099609375)"><g clip-path="url(#i65)"><polygon points="0,0 5.10253906,0 5.10253906,7.96386719 0,7.96386719 0,0" stroke="none" fill="#FFFFFF"></polygon></g></g><g transform="translate(52.509765625 2.2021484375)"><g clip-path="url(#i66)"><polygon points="0,0 5.0390625,0 5.0390625,5.55664062 0,5.55664062 0,0" stroke="none" fill="#FFFFFF"></polygon></g></g><g transform="translate(59.0478515625 0.0634765625)"><g clip-path="url(#i60)"><polygon points="0,0 1.62109375,0 1.62109375,7.59765625 0,7.59765625 0,0" stroke="none" fill="#FFFFFF"></polygon></g></g><g transform="translate(62.1630859375 2.099609375)"><g clip-path="url(#i58)"><polygon points="0,0 5.09765625,0 5.09765625,7.96386719 0,7.96386719 0,0" stroke="none" fill="#FFFFFF"></polygon></g></g><g transform="translate(68.1591796875 2.099609375)"><g clip-path="url(#i67)"><polygon points="0,0 5.02929688,0 5.02929688,5.65917969 0,5.65917969 0,0" stroke="none" fill="#FFFFFF"></polygon></g></g></g><g transform="translate(19.5810546875 133.40234375)"><g transform="translate(0.0 0.3466796875)"><g clip-path="url(#i68)"><polygon points="0,0 6.796875,0 6.796875,7.34863281 0,7.34863281 0,0" stroke="none" fill="#FFFFFF"></polygon></g></g><g transform="translate(8.1591796875 2.0361328125)"><g clip-path="url(#i69)"><polygon points="0,0 3.54980469,0 3.54980469,5.56152344 0,5.56152344 0,0" stroke="none" fill="#FFFFFF"></polygon></g></g><g transform="translate(11.9482421875 2.0361328125)"><g clip-path="url(#i70)"><polygon points="0,0 5.50292969,0 5.50292969,7.96386719 0,7.96386719 0,0" stroke="none" fill="#FFFFFF"></polygon></g></g><g transform="translate(17.98828125 2.0263671875)"><g clip-path="url(#i71)"><polygon points="0,0 4.86816406,0 4.86816406,5.66894531 0,5.66894531 0,0" stroke="none" fill="#FFFFFF"></polygon></g></g><g transform="translate(24.3896484375 2.0361328125)"><g clip-path="url(#i72)"><polygon points="0,0 5.0390625,0 5.0390625,5.56152344 0,5.56152344 0,0" stroke="none" fill="#FFFFFF"></polygon></g></g><g transform="translate(30.8984375 0.0)"><g clip-path="url(#i60)"><polygon points="0,0 1.62109375,0 1.62109375,7.59765625 0,7.59765625 0,0" stroke="none" fill="#FFFFFF"></polygon></g></g><g transform="translate(33.681640625 2.0361328125)"><g clip-path="url(#i73)"><polygon points="0,0 4.140625,0 4.140625,5.65917969 0,5.65917969 0,0" stroke="none" fill="#FFFFFF"></polygon></g></g><g transform="translate(38.623046875 2.0263671875)"><g clip-path="url(#i71)"><polygon points="0,0 4.86816406,0 4.86816406,5.66894531 0,5.66894531 0,0" stroke="none" fill="#FFFFFF"></polygon></g></g><g transform="translate(44.47265625 0.9765625)"><g clip-path="url(#i74)"><polygon points="0,0 3.7890625,0 3.7890625,6.71875 0,6.71875 0,0" stroke="none" fill="#FFFFFF"></polygon></g></g><g transform="translate(49.3017578125 0.0)"><g clip-path="url(#i60)"><polygon points="0,0 1.62109375,0 1.62109375,7.59765625 0,7.59765625 0,0" stroke="none" fill="#FFFFFF"></polygon></g></g><g transform="translate(52.0849609375 2.0361328125)"><g clip-path="url(#i75)"><polygon points="0,0 5.29296875,0 5.29296875,5.65917969 0,5.65917969 0,0" stroke="none" fill="#FFFFFF"></polygon></g></g><g transform="translate(58.6083984375 2.0361328125)"><g clip-path="url(#i76)"><polygon points="0,0 5.0390625,0 5.0390625,5.56152344 0,5.56152344 0,0" stroke="none" fill="#FFFFFF"></polygon></g></g></g><g transform="translate(19.0 150.40234375)"><g transform="translate(0.0 0.4296875)"><g clip-path="url(#i77)"><polygon points="0,0 6.89941406,0 6.89941406,7.16796875 0,7.16796875 0,0" stroke="none" fill="#FFFFFF"></polygon></g></g><g transform="translate(7.6513671875 2.138671875)"><g clip-path="url(#i78)"><polygon points="0,0 5.0390625,0 5.0390625,5.55664062 0,5.55664062 0,0" stroke="none" fill="#FFFFFF"></polygon></g></g><g transform="translate(13.701171875 0.9765625)"><g clip-path="url(#i79)"><polygon points="0,0 3.7890625,0 3.7890625,6.71875 0,6.71875 0,0" stroke="none" fill="#FFFFFF"></polygon></g></g><g transform="translate(18.26171875 2.0361328125)"><g clip-path="url(#i75)"><polygon points="0,0 5.29296875,0 5.29296875,5.65917969 0,5.65917969 0,0" stroke="none" fill="#FFFFFF"></polygon></g></g><g transform="translate(24.78515625 2.0361328125)"><g clip-path="url(#i72)"><polygon points="0,0 5.0390625,0 5.0390625,5.56152344 0,5.56152344 0,0" stroke="none" fill="#FFFFFF"></polygon></g></g><g transform="translate(31.025390625 2.0361328125)"><g clip-path="url(#i75)"><polygon points="0,0 5.29296875,0 5.29296875,5.65917969 0,5.65917969 0,0" stroke="none" fill="#FFFFFF"></polygon></g></g><g transform="translate(37.548828125 2.0361328125)"><g clip-path="url(#i80)"><polygon points="0,0 8.29101562,0 8.29101562,5.56152344 0,5.56152344 0,0" stroke="none" fill="#FFFFFF"></polygon></g></g><g transform="translate(47.3046875 0.0)"><g clip-path="url(#i60)"><polygon points="0,0 1.62109375,0 1.62109375,7.59765625 0,7.59765625 0,0" stroke="none" fill="#FFFFFF"></polygon></g></g><g transform="translate(50.087890625 2.0361328125)"><g clip-path="url(#i67)"><polygon points="0,0 5.02929688,0 5.02929688,5.65917969 0,5.65917969 0,0" stroke="none" fill="#FFFFFF"></polygon></g></g></g><g transform="translate(19.5810546875 167.40234375)"><g transform="translate(0.0 0.3564453125)"><g clip-path="url(#i81)"><polygon points="0,0 5.43945312,0 5.43945312,7.33886719 0,7.33886719 0,0" stroke="none" fill="#FFFFFF"></polygon></g></g><g transform="translate(6.240234375 2.0361328125)"><g clip-path="url(#i75)"><polygon points="0,0 5.29296875,0 5.29296875,5.65917969 0,5.65917969 0,0" stroke="none" fill="#FFFFFF"></polygon></g></g><g transform="translate(12.763671875 2.0361328125)"><g clip-path="url(#i80)"><polygon points="0,0 8.29101562,0 8.29101562,5.56152344 0,5.56152344 0,0" stroke="none" fill="#FFFFFF"></polygon></g></g><g transform="translate(22.5830078125 2.0361328125)"><g clip-path="url(#i80)"><polygon points="0,0 8.29101562,0 8.29101562,5.56152344 0,5.56152344 0,0" stroke="none" fill="#FFFFFF"></polygon></g></g><g transform="translate(32.373046875 2.138671875)"><g clip-path="url(#i82)"><polygon points="0,0 5.0390625,0 5.0390625,5.55664062 0,5.55664062 0,0" stroke="none" fill="#FFFFFF"></polygon></g></g><g transform="translate(38.974609375 2.0361328125)"><g clip-path="url(#i72)"><polygon points="0,0 5.0390625,0 5.0390625,5.56152344 0,5.56152344 0,0" stroke="none" fill="#FFFFFF"></polygon></g></g><g transform="translate(45.4833984375 0.0)"><g clip-path="url(#i60)"><polygon points="0,0 1.62109375,0 1.62109375,7.59765625 0,7.59765625 0,0" stroke="none" fill="#FFFFFF"></polygon></g></g><g transform="translate(48.2666015625 2.0361328125)"><g clip-path="url(#i83)"><polygon points="0,0 4.37988281,0 4.37988281,5.65917969 0,5.65917969 0,0" stroke="none" fill="#FFFFFF"></polygon></g></g><g transform="translate(53.37890625 2.0263671875)"><g clip-path="url(#i71)"><polygon points="0,0 4.86816406,0 4.86816406,5.66894531 0,5.66894531 0,0" stroke="none" fill="#FFFFFF"></polygon></g></g><g transform="translate(59.228515625 0.9765625)"><g clip-path="url(#i74)"><polygon points="0,0 3.7890625,0 3.7890625,6.71875 0,6.71875 0,0" stroke="none" fill="#FFFFFF"></polygon></g></g><g transform="translate(64.0576171875 0.0)"><g clip-path="url(#i60)"><polygon points="0,0 1.62109375,0 1.62109375,7.59765625 0,7.59765625 0,0" stroke="none" fill="#FFFFFF"></polygon></g></g><g transform="translate(66.8408203125 2.0361328125)"><g clip-path="url(#i75)"><polygon points="0,0 5.29296875,0 5.29296875,5.65917969 0,5.65917969 0,0" stroke="none" fill="#FFFFFF"></polygon></g></g><g transform="translate(73.3642578125 2.0361328125)"><g clip-path="url(#i76)"><polygon points="0,0 5.0390625,0 5.0390625,5.56152344 0,5.56152344 0,0" stroke="none" fill="#FFFFFF"></polygon></g></g></g><g transform="translate(19.5810546875 56.40234375)"><g transform="translate(0.0 0.3564453125)"><g clip-path="url(#i84)"><polygon points="0,0 5.859375,0 5.859375,7.33886719 0,7.33886719 0,0" stroke="none" fill="#FFFFFF"></polygon></g></g><g transform="translate(7.109375 2.0361328125)"><g clip-path="url(#i67)"><polygon points="0,0 5.02929688,0 5.02929688,5.65917969 0,5.65917969 0,0" stroke="none" fill="#FFFFFF"></polygon></g></g><g transform="translate(13.017578125 2.0361328125)"><g clip-path="url(#i85)"><polygon points="0,0 4.140625,0 4.140625,5.65917969 0,5.65917969 0,0" stroke="none" fill="#FFFFFF"></polygon></g></g><g transform="translate(17.7685546875 0.9765625)"><g clip-path="url(#i86)"><polygon points="0,0 3.7890625,0 3.7890625,6.71875 0,6.71875 0,0" stroke="none" fill="#FFFFFF"></polygon></g></g><g transform="translate(22.59765625 0.0)"><g clip-path="url(#i60)"><polygon points="0,0 1.62109375,0 1.62109375,7.59765625 0,7.59765625 0,0" stroke="none" fill="#FFFFFF"></polygon></g></g><g transform="translate(25.380859375 2.0361328125)"><g clip-path="url(#i75)"><polygon points="0,0 5.29296875,0 5.29296875,5.65917969 0,5.65917969 0,0" stroke="none" fill="#FFFFFF"></polygon></g></g><g transform="translate(31.904296875 2.0361328125)"><g clip-path="url(#i87)"><polygon points="0,0 5.0390625,0 5.0390625,5.56152344 0,5.56152344 0,0" stroke="none" fill="#FFFFFF"></polygon></g></g><g transform="translate(40.712890625 2.0263671875)"><g clip-path="url(#i71)"><polygon points="0,0 4.86816406,0 4.86816406,5.66894531 0,5.66894531 0,0" stroke="none" fill="#FFFFFF"></polygon></g></g><g transform="translate(46.7822265625 0.0)"><g clip-path="url(#i62)"><polygon points="0,0 5.10253906,0 5.10253906,7.6953125 0,7.6953125 0,0" stroke="none" fill="#FFFFFF"></polygon></g></g><g transform="translate(53.4423828125 2.0361328125)"><g clip-path="url(#i88)"><polygon points="0,0 8.29101562,0 8.29101562,5.56152344 0,5.56152344 0,0" stroke="none" fill="#FFFFFF"></polygon></g></g><g transform="translate(63.1982421875 0.0)"><g clip-path="url(#i60)"><polygon points="0,0 1.62109375,0 1.62109375,7.59765625 0,7.59765625 0,0" stroke="none" fill="#FFFFFF"></polygon></g></g><g transform="translate(66.3134765625 2.0361328125)"><g clip-path="url(#i89)"><polygon points="0,0 5.0390625,0 5.0390625,5.56152344 0,5.56152344 0,0" stroke="none" fill="#FFFFFF"></polygon></g></g><g transform="translate(72.822265625 0.0)"><g clip-path="url(#i60)"><polygon points="0,0 1.62109375,0 1.62109375,7.59765625 0,7.59765625 0,0" stroke="none" fill="#FFFFFF"></polygon></g></g><g transform="translate(75.60546875 2.0361328125)"><g clip-path="url(#i90)"><polygon points="0,0 4.140625,0 4.140625,5.65917969 0,5.65917969 0,0" stroke="none" fill="#FFFFFF"></polygon></g></g><g transform="translate(80.3564453125 0.9765625)"><g clip-path="url(#i91)"><polygon points="0,0 3.7890625,0 3.7890625,6.71875 0,6.71875 0,0" stroke="none" fill="#FFFFFF"></polygon></g></g><g transform="translate(85.2490234375 2.0361328125)"><g clip-path="url(#i92)"><polygon points="0,0 3.54980469,0 3.54980469,5.56152344 0,5.56152344 0,0" stroke="none" fill="#FFFFFF"></polygon></g></g><g transform="translate(89.4287109375 2.0263671875)"><g clip-path="url(#i71)"><polygon points="0,0 4.86816406,0 4.86816406,5.66894531 0,5.66894531 0,0" stroke="none" fill="#FFFFFF"></polygon></g></g><g transform="translate(95.2783203125 0.9765625)"><g clip-path="url(#i91)"><polygon points="0,0 3.7890625,0 3.7890625,6.71875 0,6.71875 0,0" stroke="none" fill="#FFFFFF"></polygon></g></g><g transform="translate(100.107421875 0.0)"><g clip-path="url(#i60)"><polygon points="0,0 1.62109375,0 1.62109375,7.59765625 0,7.59765625 0,0" stroke="none" fill="#FFFFFF"></polygon></g></g><g transform="translate(102.44140625 2.138671875)"><g clip-path="url(#i93)"><polygon points="0,0 5.68847656,0 5.68847656,5.45898438 0,5.45898438 0,0" stroke="none" fill="#FFFFFF"></polygon></g></g><g transform="translate(108.5791015625 2.0361328125)"><g clip-path="url(#i67)"><polygon points="0,0 5.02929688,0 5.02929688,5.65917969 0,5.65917969 0,0" stroke="none" fill="#FFFFFF"></polygon></g></g></g><g transform="translate(10.478515625 58.7998046875)"><g clip-path="url(#i94)"><polygon points="0,0 2.80273438,0 2.80273438,3.10058594 0,3.10058594 0,0" stroke="none" fill="#FFFFFF"></polygon></g></g><g transform="translate(10.478515625 75.7998046875)"><g clip-path="url(#i95)"><polygon points="0,0 2.80273438,0 2.80273438,3.10058594 0,3.10058594 0,0" stroke="none" fill="#FFFFFF"></polygon></g></g><g transform="translate(10.478515625 118.7998046875)"><g clip-path="url(#i95)"><polygon points="0,0 2.80273438,0 2.80273438,3.10058594 0,3.10058594 0,0" stroke="none" fill="#FFFFFF"></polygon></g></g><g transform="translate(10.478515625 135.7998046875)"><g clip-path="url(#i96)"><polygon points="0,0 2.80273438,0 2.80273438,3.10058594 0,3.10058594 0,0" stroke="none" fill="#FFFFFF"></polygon></g></g><g transform="translate(10.478515625 152.7998046875)"><g clip-path="url(#i96)"><polygon points="0,0 2.80273438,0 2.80273438,3.10058594 0,3.10058594 0,0" stroke="none" fill="#FFFFFF"></polygon></g></g><g transform="translate(10.478515625 169.7998046875)"><g clip-path="url(#i96)"><polygon points="0,0 2.80273438,0 2.80273438,3.10058594 0,3.10058594 0,0" stroke="none" fill="#FFFFFF"></polygon></g></g><g transform="translate(19.8984375 73.3486328125)"><g transform="translate(0.0 0.5126953125)"><g clip-path="url(#i97)"><polygon points="0,0 4.93164062,0 4.93164062,7.13867188 0,7.13867188 0,0" stroke="none" fill="#FFFFFF"></polygon></g></g><g transform="translate(5.80078125 2.080078125)"><g clip-path="url(#i71)"><polygon points="0,0 4.86816406,0 4.86816406,5.66894531 0,5.66894531 0,0" stroke="none" fill="#FFFFFF"></polygon></g></g><g transform="translate(11.8701171875 2.08984375)"><g clip-path="url(#i98)"><polygon points="0,0 4.37988281,0 4.37988281,5.65917969 0,5.65917969 0,0" stroke="none" fill="#FFFFFF"></polygon></g></g><g transform="translate(17.34375 0.0537109375)"><g clip-path="url(#i99)"><polygon points="0,0 5.41992188,0 5.41992188,7.59765625 0,7.59765625 0,0" stroke="none" fill="#FFFFFF"></polygon></g></g><g transform="translate(25.810546875 2.08984375)"><g clip-path="url(#i75)"><polygon points="0,0 5.29296875,0 5.29296875,5.65917969 0,5.65917969 0,0" stroke="none" fill="#FFFFFF"></polygon></g></g><g transform="translate(31.7529296875 0.0)"><g clip-path="url(#i100)"><polygon points="0,0 9.86816406,0 9.86816406,7.65136719 0,7.65136719 0,0" stroke="none" fill="#FFFFFF"></polygon></g></g><g transform="translate(42.783203125 2.08984375)"><g clip-path="url(#i101)"><polygon points="0,0 4.37988281,0 4.37988281,5.65917969 0,5.65917969 0,0" stroke="none" fill="#FFFFFF"></polygon></g></g><g transform="translate(47.9248046875 2.08984375)"><g clip-path="url(#i67)"><polygon points="0,0 5.02929688,0 5.02929688,5.65917969 0,5.65917969 0,0" stroke="none" fill="#FFFFFF"></polygon></g></g></g></g></g></g></g></svg>