<?xml version="1.0" encoding="utf-8"?>
<svg xmlns="http://www.w3.org/2000/svg" version="1.1" width="200" height="150">
<rect width="200" height="150" x="0" y="0" fill="white" />
<line x1="0" y1="0" x2="50" y2="0" stroke="red" stroke-width="2" />
<line x1="50" y1="0" x2="100" y2="0" stroke="red" stroke-width="2" />
<line x1="100" y1="0" x2="150" y2="0" stroke="red" stroke-width="2" />
<line x1="150" y1="0" x2="200" y2="0" stroke="red" stroke-width="2" />
<line x1="0" y1="50" x2="50" y2="50" stroke="red" stroke-width="2" />
<line x1="150" y1="50" x2="200" y2="50" stroke="red" stroke-width="2" />
<line x1="0" y1="100" x2="50" y2="100" stroke="red" stroke-width="2" />
<line x1="50" y1="100" x2="100" y2="100" stroke="red" stroke-width="2" />
<line x1="150" y1="100" x2="200" y2="100" stroke="red" stroke-width="2" />
<line x1="0" y1="150" x2="50" y2="150" stroke="red" stroke-width="2" />
<line x1="50" y1="150" x2="100" y2="150" stroke="red" stroke-width="2" />
<line x1="100" y1="150" x2="150" y2="150" stroke="red" stroke-width="2" />
<line x1="150" y1="150" x2="200" y2="150" stroke="red" stroke-width="2" />
<line x1="0" y1="0" x2="0" y2="50" stroke="red" stroke-width="2" />
<line x1="100" y1="0" x2="100" y2="50" stroke="red" stroke-width="2" />
<line x1="200" y1="0" x2="200" y2="50" stroke="red" stroke-width="2" />
<line x1="0" y1="50" x2="0" y2="100" stroke="red" stroke-width="2" />
<line x1="200" y1="50" x2="200" y2="100" stroke="red" stroke-width="2" />
<line x1="0" y1="100" x2="0" y2="150" stroke="red" stroke-width="2" />
<line x1="200" y1="100" x2="200" y2="150" stroke="red" stroke-width="2" />
<text x="25" y="25" font-family="Verdana" font-size="10" text-anchor="middle"  dominant-baseline="middle" fill="blue" >
0
</text>
<text x="75" y="25" font-family="Verdana" font-size="10" text-anchor="middle"  dominant-baseline="middle" fill="blue" >
0
</text>
<text x="125" y="25" font-family="Verdana" font-size="10" text-anchor="middle"  dominant-baseline="middle" fill="blue" >
0
</text>
<text x="175" y="25" font-family="Verdana" font-size="10" text-anchor="middle"  dominant-baseline="middle" fill="blue" >
0
</text>
<text x="25" y="75" font-family="Verdana" font-size="10" text-anchor="middle"  dominant-baseline="middle" fill="blue" >
0
</text>
<text x="75" y="75" font-family="Verdana" font-size="10" text-anchor="middle"  dominant-baseline="middle" fill="blue" >
0
</text>
<text x="125" y="75" font-family="Verdana" font-size="10" text-anchor="middle"  dominant-baseline="middle" fill="blue" >
0
</text>
<text x="175" y="75" font-family="Verdana" font-size="10" text-anchor="middle"  dominant-baseline="middle" fill="blue" >
0
</text>
<text x="25" y="125" font-family="Verdana" font-size="10" text-anchor="middle"  dominant-baseline="middle" fill="blue" >
0
</text>
<text x="75" y="125" font-family="Verdana" font-size="10" text-anchor="middle"  dominant-baseline="middle" fill="blue" >
0
</text>
<text x="125" y="125" font-family="Verdana" font-size="10" text-anchor="middle"  dominant-baseline="middle" fill="blue" >
0
</text>
<text x="175" y="125" font-family="Verdana" font-size="10" text-anchor="middle"  dominant-baseline="middle" fill="blue" >
0
</text>
</svg>
