<?xml version="1.0" encoding="utf-8"?>
<svg xmlns="http://www.w3.org/2000/svg" version="1.1" width="1020" height="770">
<rect width="1020" height="770" x="0" y="0" fill="white" />
<line x1="10" y1="10" x2="10" y2="60" stroke="black" stroke-width="3" />
<line x1="10" y1="60" x2="10" y2="110" stroke="black" stroke-width="3" />
<line x1="10" y1="160" x2="10" y2="210" stroke="black" stroke-width="3" />
<line x1="10" y1="210" x2="10" y2="260" stroke="black" stroke-width="3" />
<line x1="10" y1="310" x2="10" y2="360" stroke="black" stroke-width="3" />
<line x1="10" y1="460" x2="10" y2="510" stroke="black" stroke-width="3" />
<line x1="10" y1="510" x2="10" y2="560" stroke="black" stroke-width="3" />
<line x1="10" y1="560" x2="10" y2="610" stroke="black" stroke-width="3" />
<line x1="10" y1="610" x2="10" y2="660" stroke="black" stroke-width="3" />
<line x1="10" y1="660" x2="10" y2="710" stroke="black" stroke-width="3" />
<line x1="60" y1="60" x2="60" y2="110" stroke="black" stroke-width="3" />
<line x1="60" y1="110" x2="60" y2="160" stroke="black" stroke-width="3" />
<line x1="60" y1="210" x2="60" y2="260" stroke="black" stroke-width="3" />
<line x1="60" y1="310" x2="60" y2="360" stroke="black" stroke-width="3" />
<line x1="60" y1="360" x2="60" y2="410" stroke="black" stroke-width="3" />
<line x1="60" y1="410" x2="60" y2="460" stroke="black" stroke-width="3" />
<line x1="60" y1="460" x2="60" y2="510" stroke="black" stroke-width="3" />
<line x1="60" y1="560" x2="60" y2="610" stroke="black" stroke-width="3" />
<line x1="60" y1="610" x2="60" y2="660" stroke="black" stroke-width="3" />
<line x1="60" y1="660" x2="60" y2="710" stroke="black" stroke-width="3" />
<line x1="110" y1="110" x2="110" y2="160" stroke="black" stroke-width="3" />
<line x1="110" y1="160" x2="110" y2="210" stroke="black" stroke-width="3" />
<line x1="110" y1="410" x2="110" y2="460" stroke="black" stroke-width="3" />
<line x1="160" y1="60" x2="160" y2="110" stroke="black" stroke-width="3" />
<line x1="160" y1="160" x2="160" y2="210" stroke="black" stroke-width="3" />
<line x1="160" y1="210" x2="160" y2="260" stroke="black" stroke-width="3" />
<line x1="160" y1="510" x2="160" y2="560" stroke="black" stroke-width="3" />
<line x1="160" y1="560" x2="160" y2="610" stroke="black" stroke-width="3" />
<line x1="160" y1="660" x2="160" y2="710" stroke="black" stroke-width="3" />
<line x1="160" y1="710" x2="160" y2="760" stroke="black" stroke-width="3" />
<line x1="210" y1="60" x2="210" y2="110" stroke="black" stroke-width="3" />
<line x1="210" y1="110" x2="210" y2="160" stroke="black" stroke-width="3" />
<line x1="210" y1="210" x2="210" y2="260" stroke="black" stroke-width="3" />
<line x1="210" y1="260" x2="210" y2="310" stroke="black" stroke-width="3" />
<line x1="210" y1="460" x2="210" y2="510" stroke="black" stroke-width="3" />
<line x1="210" y1="560" x2="210" y2="610" stroke="black" stroke-width="3" />
<line x1="210" y1="610" x2="210" y2="660" stroke="black" stroke-width="3" />
<line x1="210" y1="660" x2="210" y2="710" stroke="black" stroke-width="3" />
<line x1="260" y1="110" x2="260" y2="160" stroke="black" stroke-width="3" />
<line x1="260" y1="260" x2="260" y2="310" stroke="black" stroke-width="3" />
<line x1="260" y1="310" x2="260" y2="360" stroke="black" stroke-width="3" />
<line x1="260" y1="410" x2="260" y2="460" stroke="black" stroke-width="3" />
<line x1="260" y1="510" x2="260" y2="560" stroke="black" stroke-width="3" />
<line x1="310" y1="10" x2="310" y2="60" stroke="black" stroke-width="3" />
<line x1="310" y1="110" x2="310" y2="160" stroke="black" stroke-width="3" />
<line x1="310" y1="160" x2="310" y2="210" stroke="black" stroke-width="3" />
<line x1="310" y1="210" x2="310" y2="260" stroke="black" stroke-width="3" />
<line x1="310" y1="310" x2="310" y2="360" stroke="black" stroke-width="3" />
<line x1="310" y1="360" x2="310" y2="410" stroke="black" stroke-width="3" />
<line x1="310" y1="510" x2="310" y2="560" stroke="black" stroke-width="3" />
<line x1="310" y1="560" x2="310" y2="610" stroke="black" stroke-width="3" />
<line x1="310" y1="610" x2="310" y2="660" stroke="black" stroke-width="3" />
<line x1="360" y1="360" x2="360" y2="410" stroke="black" stroke-width="3" />
<line x1="360" y1="410" x2="360" y2="460" stroke="black" stroke-width="3" />
<line x1="360" y1="560" x2="360" y2="610" stroke="black" stroke-width="3" />
<line x1="360" y1="660" x2="360" y2="710" stroke="black" stroke-width="3" />
<line x1="360" y1="710" x2="360" y2="760" stroke="black" stroke-width="3" />
<line x1="410" y1="60" x2="410" y2="110" stroke="black" stroke-width="3" />
<line x1="410" y1="110" x2="410" y2="160" stroke="black" stroke-width="3" />
<line x1="410" y1="410" x2="410" y2="460" stroke="black" stroke-width="3" />
<line x1="410" y1="460" x2="410" y2="510" stroke="black" stroke-width="3" />
<line x1="410" y1="660" x2="410" y2="710" stroke="black" stroke-width="3" />
<line x1="410" y1="710" x2="410" y2="760" stroke="black" stroke-width="3" />
<line x1="460" y1="60" x2="460" y2="110" stroke="black" stroke-width="3" />
<line x1="460" y1="160" x2="460" y2="210" stroke="black" stroke-width="3" />
<line x1="460" y1="210" x2="460" y2="260" stroke="black" stroke-width="3" />
<line x1="460" y1="260" x2="460" y2="310" stroke="black" stroke-width="3" />
<line x1="460" y1="310" x2="460" y2="360" stroke="black" stroke-width="3" />
<line x1="460" y1="360" x2="460" y2="410" stroke="black" stroke-width="3" />
<line x1="460" y1="460" x2="460" y2="510" stroke="black" stroke-width="3" />
<line x1="460" y1="510" x2="460" y2="560" stroke="black" stroke-width="3" />
<line x1="460" y1="660" x2="460" y2="710" stroke="black" stroke-width="3" />
<line x1="510" y1="60" x2="510" y2="110" stroke="black" stroke-width="3" />
<line x1="510" y1="160" x2="510" y2="210" stroke="black" stroke-width="3" />
<line x1="510" y1="260" x2="510" y2="310" stroke="black" stroke-width="3" />
<line x1="510" y1="310" x2="510" y2="360" stroke="black" stroke-width="3" />
<line x1="510" y1="360" x2="510" y2="410" stroke="black" stroke-width="3" />
<line x1="510" y1="410" x2="510" y2="460" stroke="black" stroke-width="3" />
<line x1="510" y1="510" x2="510" y2="560" stroke="black" stroke-width="3" />
<line x1="510" y1="560" x2="510" y2="610" stroke="black" stroke-width="3" />
<line x1="510" y1="660" x2="510" y2="710" stroke="black" stroke-width="3" />
<line x1="510" y1="710" x2="510" y2="760" stroke="black" stroke-width="3" />
<line x1="560" y1="60" x2="560" y2="110" stroke="black" stroke-width="3" />
<line x1="560" y1="260" x2="560" y2="310" stroke="black" stroke-width="3" />
<line x1="560" y1="460" x2="560" y2="510" stroke="black" stroke-width="3" />
<line x1="560" y1="560" x2="560" y2="610" stroke="black" stroke-width="3" />
<line x1="560" y1="610" x2="560" y2="660" stroke="black" stroke-width="3" />
<line x1="610" y1="10" x2="610" y2="60" stroke="black" stroke-width="3" />
<line x1="610" y1="60" x2="610" y2="110" stroke="black" stroke-width="3" />
<line x1="610" y1="110" x2="610" y2="160" stroke="black" stroke-width="3" />
<line x1="610" y1="160" x2="610" y2="210" stroke="black" stroke-width="3" />
<line x1="610" y1="210" x2="610" y2="260" stroke="black" stroke-width="3" />
<line x1="610" y1="260" x2="610" y2="310" stroke="black" stroke-width="3" />
<line x1="610" y1="410" x2="610" y2="460" stroke="black" stroke-width="3" />
<line x1="610" y1="460" x2="610" y2="510" stroke="black" stroke-width="3" />
<line x1="610" y1="510" x2="610" y2="560" stroke="black" stroke-width="3" />
<line x1="610" y1="610" x2="610" y2="660" stroke="black" stroke-width="3" />
<line x1="610" y1="660" x2="610" y2="710" stroke="black" stroke-width="3" />
<line x1="660" y1="160" x2="660" y2="210" stroke="black" stroke-width="3" />
<line x1="660" y1="210" x2="660" y2="260" stroke="black" stroke-width="3" />
<line x1="660" y1="360" x2="660" y2="410" stroke="black" stroke-width="3" />
<line x1="660" y1="510" x2="660" y2="560" stroke="black" stroke-width="3" />
<line x1="660" y1="660" x2="660" y2="710" stroke="black" stroke-width="3" />
<line x1="660" y1="710" x2="660" y2="760" stroke="black" stroke-width="3" />
<line x1="710" y1="10" x2="710" y2="60" stroke="black" stroke-width="3" />
<line x1="710" y1="60" x2="710" y2="110" stroke="black" stroke-width="3" />
<line x1="710" y1="110" x2="710" y2="160" stroke="black" stroke-width="3" />
<line x1="710" y1="210" x2="710" y2="260" stroke="black" stroke-width="3" />
<line x1="710" y1="310" x2="710" y2="360" stroke="black" stroke-width="3" />
<line x1="710" y1="360" x2="710" y2="410" stroke="black" stroke-width="3" />
<line x1="710" y1="510" x2="710" y2="560" stroke="black" stroke-width="3" />
<line x1="710" y1="610" x2="710" y2="660" stroke="black" stroke-width="3" />
<line x1="710" y1="710" x2="710" y2="760" stroke="black" stroke-width="3" />
<line x1="760" y1="110" x2="760" y2="160" stroke="black" stroke-width="3" />
<line x1="760" y1="210" x2="760" y2="260" stroke="black" stroke-width="3" />
<line x1="760" y1="260" x2="760" y2="310" stroke="black" stroke-width="3" />
<line x1="760" y1="310" x2="760" y2="360" stroke="black" stroke-width="3" />
<line x1="760" y1="360" x2="760" y2="410" stroke="black" stroke-width="3" />
<line x1="760" y1="410" x2="760" y2="460" stroke="black" stroke-width="3" />
<line x1="760" y1="460" x2="760" y2="510" stroke="black" stroke-width="3" />
<line x1="760" y1="560" x2="760" y2="610" stroke="black" stroke-width="3" />
<line x1="810" y1="10" x2="810" y2="60" stroke="black" stroke-width="3" />
<line x1="810" y1="110" x2="810" y2="160" stroke="black" stroke-width="3" />
<line x1="810" y1="160" x2="810" y2="210" stroke="black" stroke-width="3" />
<line x1="810" y1="260" x2="810" y2="310" stroke="black" stroke-width="3" />
<line x1="810" y1="310" x2="810" y2="360" stroke="black" stroke-width="3" />
<line x1="810" y1="360" x2="810" y2="410" stroke="black" stroke-width="3" />
<line x1="810" y1="460" x2="810" y2="510" stroke="black" stroke-width="3" />
<line x1="810" y1="510" x2="810" y2="560" stroke="black" stroke-width="3" />
<line x1="810" y1="560" x2="810" y2="610" stroke="black" stroke-width="3" />
<line x1="810" y1="660" x2="810" y2="710" stroke="black" stroke-width="3" />
<line x1="860" y1="10" x2="860" y2="60" stroke="black" stroke-width="3" />
<line x1="860" y1="210" x2="860" y2="260" stroke="black" stroke-width="3" />
<line x1="860" y1="460" x2="860" y2="510" stroke="black" stroke-width="3" />
<line x1="860" y1="510" x2="860" y2="560" stroke="black" stroke-width="3" />
<line x1="910" y1="260" x2="910" y2="310" stroke="black" stroke-width="3" />
<line x1="910" y1="610" x2="910" y2="660" stroke="black" stroke-width="3" />
<line x1="910" y1="660" x2="910" y2="710" stroke="black" stroke-width="3" />
<line x1="960" y1="60" x2="960" y2="110" stroke="black" stroke-width="3" />
<line x1="960" y1="160" x2="960" y2="210" stroke="black" stroke-width="3" />
<line x1="960" y1="510" x2="960" y2="560" stroke="black" stroke-width="3" />
<line x1="960" y1="560" x2="960" y2="610" stroke="black" stroke-width="3" />
<line x1="960" y1="610" x2="960" y2="660" stroke="black" stroke-width="3" />
<line x1="1010" y1="10" x2="1010" y2="60" stroke="black" stroke-width="3" />
<line x1="1010" y1="110" x2="1010" y2="160" stroke="black" stroke-width="3" />
<line x1="1010" y1="160" x2="1010" y2="210" stroke="black" stroke-width="3" />
<line x1="1010" y1="260" x2="1010" y2="310" stroke="black" stroke-width="3" />
<line x1="1010" y1="410" x2="1010" y2="460" stroke="black" stroke-width="3" />
<line x1="1010" y1="460" x2="1010" y2="510" stroke="black" stroke-width="3" />
<line x1="1010" y1="510" x2="1010" y2="560" stroke="black" stroke-width="3" />
<line x1="1010" y1="560" x2="1010" y2="610" stroke="black" stroke-width="3" />
<line x1="1010" y1="610" x2="1010" y2="660" stroke="black" stroke-width="3" />
<line x1="1010" y1="710" x2="1010" y2="760" stroke="black" stroke-width="3" />
<line x1="10" y1="10" x2="60" y2="10" stroke="black" stroke-width="3" />
<line x1="10" y1="60" x2="60" y2="60" stroke="black" stroke-width="3" />
<line x1="10" y1="110" x2="60" y2="110" stroke="black" stroke-width="3" />
<line x1="10" y1="160" x2="60" y2="160" stroke="black" stroke-width="3" />
<line x1="10" y1="210" x2="60" y2="210" stroke="black" stroke-width="3" />
<line x1="10" y1="260" x2="60" y2="260" stroke="black" stroke-width="3" />
<line x1="10" y1="310" x2="60" y2="310" stroke="black" stroke-width="3" />
<line x1="10" y1="360" x2="60" y2="360" stroke="black" stroke-width="3" />
<line x1="10" y1="410" x2="60" y2="410" stroke="black" stroke-width="3" />
<line x1="10" y1="460" x2="60" y2="460" stroke="black" stroke-width="3" />
<line x1="10" y1="510" x2="60" y2="510" stroke="black" stroke-width="3" />
<line x1="10" y1="560" x2="60" y2="560" stroke="black" stroke-width="3" />
<line x1="10" y1="610" x2="60" y2="610" stroke="black" stroke-width="3" />
<line x1="10" y1="660" x2="60" y2="660" stroke="black" stroke-width="3" />
<line x1="10" y1="710" x2="60" y2="710" stroke="black" stroke-width="3" />
<line x1="10" y1="760" x2="60" y2="760" stroke="black" stroke-width="3" />
<line x1="60" y1="10" x2="110" y2="10" stroke="black" stroke-width="3" />
<line x1="60" y1="110" x2="110" y2="110" stroke="black" stroke-width="3" />
<line x1="60" y1="260" x2="110" y2="260" stroke="black" stroke-width="3" />
<line x1="60" y1="310" x2="110" y2="310" stroke="black" stroke-width="3" />
<line x1="60" y1="760" x2="110" y2="760" stroke="black" stroke-width="3" />
<line x1="110" y1="10" x2="160" y2="10" stroke="black" stroke-width="3" />
<line x1="110" y1="60" x2="160" y2="60" stroke="black" stroke-width="3" />
<line x1="110" y1="260" x2="160" y2="260" stroke="black" stroke-width="3" />
<line x1="110" y1="510" x2="160" y2="510" stroke="black" stroke-width="3" />
<line x1="110" y1="610" x2="160" y2="610" stroke="black" stroke-width="3" />
<line x1="110" y1="660" x2="160" y2="660" stroke="black" stroke-width="3" />
<line x1="110" y1="710" x2="160" y2="710" stroke="black" stroke-width="3" />
<line x1="110" y1="760" x2="160" y2="760" stroke="black" stroke-width="3" />
<line x1="160" y1="10" x2="210" y2="10" stroke="black" stroke-width="3" />
<line x1="160" y1="60" x2="210" y2="60" stroke="black" stroke-width="3" />
<line x1="160" y1="160" x2="210" y2="160" stroke="black" stroke-width="3" />
<line x1="160" y1="210" x2="210" y2="210" stroke="black" stroke-width="3" />
<line x1="160" y1="260" x2="210" y2="260" stroke="black" stroke-width="3" />
<line x1="160" y1="310" x2="210" y2="310" stroke="black" stroke-width="3" />
<line x1="160" y1="460" x2="210" y2="460" stroke="black" stroke-width="3" />
<line x1="160" y1="560" x2="210" y2="560" stroke="black" stroke-width="3" />
<line x1="160" y1="610" x2="210" y2="610" stroke="black" stroke-width="3" />
<line x1="160" y1="710" x2="210" y2="710" stroke="black" stroke-width="3" />
<line x1="160" y1="760" x2="210" y2="760" stroke="black" stroke-width="3" />
<line x1="210" y1="10" x2="260" y2="10" stroke="black" stroke-width="3" />
<line x1="210" y1="60" x2="260" y2="60" stroke="black" stroke-width="3" />
<line x1="210" y1="110" x2="260" y2="110" stroke="black" stroke-width="3" />
<line x1="210" y1="160" x2="260" y2="160" stroke="black" stroke-width="3" />
<line x1="210" y1="310" x2="260" y2="310" stroke="black" stroke-width="3" />
<line x1="210" y1="360" x2="260" y2="360" stroke="black" stroke-width="3" />
<line x1="210" y1="410" x2="260" y2="410" stroke="black" stroke-width="3" />
<line x1="210" y1="460" x2="260" y2="460" stroke="black" stroke-width="3" />
<line x1="210" y1="510" x2="260" y2="510" stroke="black" stroke-width="3" />
<line x1="210" y1="560" x2="260" y2="560" stroke="black" stroke-width="3" />
<line x1="210" y1="660" x2="260" y2="660" stroke="black" stroke-width="3" />
<line x1="210" y1="760" x2="260" y2="760" stroke="black" stroke-width="3" />
<line x1="260" y1="10" x2="310" y2="10" stroke="black" stroke-width="3" />
<line x1="260" y1="110" x2="310" y2="110" stroke="black" stroke-width="3" />
<line x1="260" y1="260" x2="310" y2="260" stroke="black" stroke-width="3" />
<line x1="260" y1="360" x2="310" y2="360" stroke="black" stroke-width="3" />
<line x1="260" y1="410" x2="310" y2="410" stroke="black" stroke-width="3" />
<line x1="260" y1="710" x2="310" y2="710" stroke="black" stroke-width="3" />
<line x1="260" y1="760" x2="310" y2="760" stroke="black" stroke-width="3" />
<line x1="310" y1="10" x2="360" y2="10" stroke="black" stroke-width="3" />
<line x1="310" y1="110" x2="360" y2="110" stroke="black" stroke-width="3" />
<line x1="310" y1="160" x2="360" y2="160" stroke="black" stroke-width="3" />
<line x1="310" y1="410" x2="360" y2="410" stroke="black" stroke-width="3" />
<line x1="310" y1="460" x2="360" y2="460" stroke="black" stroke-width="3" />
<line x1="310" y1="610" x2="360" y2="610" stroke="black" stroke-width="3" />
<line x1="310" y1="710" x2="360" y2="710" stroke="black" stroke-width="3" />
<line x1="310" y1="760" x2="360" y2="760" stroke="black" stroke-width="3" />
<line x1="360" y1="10" x2="410" y2="10" stroke="black" stroke-width="3" />
<line x1="360" y1="110" x2="410" y2="110" stroke="black" stroke-width="3" />
<line x1="360" y1="160" x2="410" y2="160" stroke="black" stroke-width="3" />
<line x1="360" y1="260" x2="410" y2="260" stroke="black" stroke-width="3" />
<line x1="360" y1="460" x2="410" y2="460" stroke="black" stroke-width="3" />
<line x1="360" y1="560" x2="410" y2="560" stroke="black" stroke-width="3" />
<line x1="360" y1="610" x2="410" y2="610" stroke="black" stroke-width="3" />
<line x1="360" y1="760" x2="410" y2="760" stroke="black" stroke-width="3" />
<line x1="410" y1="10" x2="460" y2="10" stroke="black" stroke-width="3" />
<line x1="410" y1="110" x2="460" y2="110" stroke="black" stroke-width="3" />
<line x1="410" y1="260" x2="460" y2="260" stroke="black" stroke-width="3" />
<line x1="410" y1="360" x2="460" y2="360" stroke="black" stroke-width="3" />
<line x1="410" y1="460" x2="460" y2="460" stroke="black" stroke-width="3" />
<line x1="410" y1="760" x2="460" y2="760" stroke="black" stroke-width="3" />
<line x1="460" y1="10" x2="510" y2="10" stroke="black" stroke-width="3" />
<line x1="460" y1="210" x2="510" y2="210" stroke="black" stroke-width="3" />
<line x1="460" y1="360" x2="510" y2="360" stroke="black" stroke-width="3" />
<line x1="460" y1="410" x2="510" y2="410" stroke="black" stroke-width="3" />
<line x1="460" y1="510" x2="510" y2="510" stroke="black" stroke-width="3" />
<line x1="460" y1="760" x2="510" y2="760" stroke="black" stroke-width="3" />
<line x1="510" y1="10" x2="560" y2="10" stroke="black" stroke-width="3" />
<line x1="510" y1="110" x2="560" y2="110" stroke="black" stroke-width="3" />
<line x1="510" y1="360" x2="560" y2="360" stroke="black" stroke-width="3" />
<line x1="510" y1="460" x2="560" y2="460" stroke="black" stroke-width="3" />
<line x1="510" y1="610" x2="560" y2="610" stroke="black" stroke-width="3" />
<line x1="510" y1="660" x2="560" y2="660" stroke="black" stroke-width="3" />
<line x1="510" y1="710" x2="560" y2="710" stroke="black" stroke-width="3" />
<line x1="510" y1="760" x2="560" y2="760" stroke="black" stroke-width="3" />
<line x1="560" y1="10" x2="610" y2="10" stroke="black" stroke-width="3" />
<line x1="560" y1="160" x2="610" y2="160" stroke="black" stroke-width="3" />
<line x1="560" y1="310" x2="610" y2="310" stroke="black" stroke-width="3" />
<line x1="560" y1="360" x2="610" y2="360" stroke="black" stroke-width="3" />
<line x1="560" y1="410" x2="610" y2="410" stroke="black" stroke-width="3" />
<line x1="560" y1="510" x2="610" y2="510" stroke="black" stroke-width="3" />
<line x1="560" y1="660" x2="610" y2="660" stroke="black" stroke-width="3" />
<line x1="560" y1="760" x2="610" y2="760" stroke="black" stroke-width="3" />
<line x1="610" y1="10" x2="660" y2="10" stroke="black" stroke-width="3" />
<line x1="610" y1="110" x2="660" y2="110" stroke="black" stroke-width="3" />
<line x1="610" y1="210" x2="660" y2="210" stroke="black" stroke-width="3" />
<line x1="610" y1="260" x2="660" y2="260" stroke="black" stroke-width="3" />
<line x1="610" y1="310" x2="660" y2="310" stroke="black" stroke-width="3" />
<line x1="610" y1="360" x2="660" y2="360" stroke="black" stroke-width="3" />
<line x1="610" y1="410" x2="660" y2="410" stroke="black" stroke-width="3" />
<line x1="610" y1="510" x2="660" y2="510" stroke="black" stroke-width="3" />
<line x1="610" y1="560" x2="660" y2="560" stroke="black" stroke-width="3" />
<line x1="610" y1="660" x2="660" y2="660" stroke="black" stroke-width="3" />
<line x1="610" y1="760" x2="660" y2="760" stroke="black" stroke-width="3" />
<line x1="660" y1="10" x2="710" y2="10" stroke="black" stroke-width="3" />
<line x1="660" y1="210" x2="710" y2="210" stroke="black" stroke-width="3" />
<line x1="660" y1="260" x2="710" y2="260" stroke="black" stroke-width="3" />
<line x1="660" y1="360" x2="710" y2="360" stroke="black" stroke-width="3" />
<line x1="660" y1="460" x2="710" y2="460" stroke="black" stroke-width="3" />
<line x1="660" y1="560" x2="710" y2="560" stroke="black" stroke-width="3" />
<line x1="660" y1="760" x2="710" y2="760" stroke="black" stroke-width="3" />
<line x1="710" y1="10" x2="760" y2="10" stroke="black" stroke-width="3" />
<line x1="710" y1="60" x2="760" y2="60" stroke="black" stroke-width="3" />
<line x1="710" y1="110" x2="760" y2="110" stroke="black" stroke-width="3" />
<line x1="710" y1="160" x2="760" y2="160" stroke="black" stroke-width="3" />
<line x1="710" y1="210" x2="760" y2="210" stroke="black" stroke-width="3" />
<line x1="710" y1="310" x2="760" y2="310" stroke="black" stroke-width="3" />
<line x1="710" y1="360" x2="760" y2="360" stroke="black" stroke-width="3" />
<line x1="710" y1="460" x2="760" y2="460" stroke="black" stroke-width="3" />
<line x1="710" y1="510" x2="760" y2="510" stroke="black" stroke-width="3" />
<line x1="710" y1="560" x2="760" y2="560" stroke="black" stroke-width="3" />
<line x1="710" y1="610" x2="760" y2="610" stroke="black" stroke-width="3" />
<line x1="710" y1="660" x2="760" y2="660" stroke="black" stroke-width="3" />
<line x1="710" y1="760" x2="760" y2="760" stroke="black" stroke-width="3" />
<line x1="760" y1="10" x2="810" y2="10" stroke="black" stroke-width="3" />
<line x1="760" y1="110" x2="810" y2="110" stroke="black" stroke-width="3" />
<line x1="760" y1="160" x2="810" y2="160" stroke="black" stroke-width="3" />
<line x1="760" y1="210" x2="810" y2="210" stroke="black" stroke-width="3" />
<line x1="760" y1="310" x2="810" y2="310" stroke="black" stroke-width="3" />
<line x1="760" y1="360" x2="810" y2="360" stroke="black" stroke-width="3" />
<line x1="760" y1="410" x2="810" y2="410" stroke="black" stroke-width="3" />
<line x1="760" y1="510" x2="810" y2="510" stroke="black" stroke-width="3" />
<line x1="760" y1="710" x2="810" y2="710" stroke="black" stroke-width="3" />
<line x1="760" y1="760" x2="810" y2="760" stroke="black" stroke-width="3" />
<line x1="810" y1="10" x2="860" y2="10" stroke="black" stroke-width="3" />
<line x1="810" y1="160" x2="860" y2="160" stroke="black" stroke-width="3" />
<line x1="810" y1="310" x2="860" y2="310" stroke="black" stroke-width="3" />
<line x1="810" y1="410" x2="860" y2="410" stroke="black" stroke-width="3" />
<line x1="810" y1="660" x2="860" y2="660" stroke="black" stroke-width="3" />
<line x1="810" y1="710" x2="860" y2="710" stroke="black" stroke-width="3" />
<line x1="810" y1="760" x2="860" y2="760" stroke="black" stroke-width="3" />
<line x1="860" y1="10" x2="910" y2="10" stroke="black" stroke-width="3" />
<line x1="860" y1="110" x2="910" y2="110" stroke="black" stroke-width="3" />
<line x1="860" y1="210" x2="910" y2="210" stroke="black" stroke-width="3" />
<line x1="860" y1="260" x2="910" y2="260" stroke="black" stroke-width="3" />
<line x1="860" y1="310" x2="910" y2="310" stroke="black" stroke-width="3" />
<line x1="860" y1="360" x2="910" y2="360" stroke="black" stroke-width="3" />
<line x1="860" y1="410" x2="910" y2="410" stroke="black" stroke-width="3" />
<line x1="860" y1="460" x2="910" y2="460" stroke="black" stroke-width="3" />
<line x1="860" y1="560" x2="910" y2="560" stroke="black" stroke-width="3" />
<line x1="860" y1="710" x2="910" y2="710" stroke="black" stroke-width="3" />
<line x1="860" y1="760" x2="910" y2="760" stroke="black" stroke-width="3" />
<line x1="910" y1="10" x2="960" y2="10" stroke="black" stroke-width="3" />
<line x1="910" y1="160" x2="960" y2="160" stroke="black" stroke-width="3" />
<line x1="910" y1="260" x2="960" y2="260" stroke="black" stroke-width="3" />
<line x1="910" y1="410" x2="960" y2="410" stroke="black" stroke-width="3" />
<line x1="910" y1="510" x2="960" y2="510" stroke="black" stroke-width="3" />
<line x1="910" y1="560" x2="960" y2="560" stroke="black" stroke-width="3" />
<line x1="910" y1="610" x2="960" y2="610" stroke="black" stroke-width="3" />
<line x1="910" y1="760" x2="960" y2="760" stroke="black" stroke-width="3" />
<line x1="960" y1="10" x2="1010" y2="10" stroke="black" stroke-width="3" />
<line x1="960" y1="60" x2="1010" y2="60" stroke="black" stroke-width="3" />
<line x1="960" y1="110" x2="1010" y2="110" stroke="black" stroke-width="3" />
<line x1="960" y1="160" x2="1010" y2="160" stroke="black" stroke-width="3" />
<line x1="960" y1="210" x2="1010" y2="210" stroke="black" stroke-width="3" />
<line x1="960" y1="260" x2="1010" y2="260" stroke="black" stroke-width="3" />
<line x1="960" y1="310" x2="1010" y2="310" stroke="black" stroke-width="3" />
<line x1="960" y1="360" x2="1010" y2="360" stroke="black" stroke-width="3" />
<line x1="960" y1="410" x2="1010" y2="410" stroke="black" stroke-width="3" />
<line x1="960" y1="460" x2="1010" y2="460" stroke="black" stroke-width="3" />
<line x1="960" y1="510" x2="1010" y2="510" stroke="black" stroke-width="3" />
<line x1="960" y1="560" x2="1010" y2="560" stroke="black" stroke-width="3" />
<line x1="960" y1="610" x2="1010" y2="610" stroke="black" stroke-width="3" />
<line x1="960" y1="660" x2="1010" y2="660" stroke="black" stroke-width="3" />
<line x1="960" y1="710" x2="1010" y2="710" stroke="black" stroke-width="3" />
<line x1="960" y1="760" x2="1010" y2="760" stroke="black" stroke-width="3" />
<line x1="35" y1="35" x2="85" y2="35" stroke="red" stroke-width="3" />
<line x1="85" y1="35" x2="135" y2="35" stroke="red" stroke-width="3" />
<line x1="135" y1="35" x2="185" y2="35" stroke="red" stroke-width="3" />
<line x1="185" y1="35" x2="235" y2="35" stroke="red" stroke-width="3" />
<line x1="235" y1="35" x2="285" y2="35" stroke="red" stroke-width="3" />
<line x1="285" y1="85" x2="285" y2="35" stroke="red" stroke-width="3" />
<line x1="285" y1="85" x2="335" y2="85" stroke="red" stroke-width="3" />
<line x1="335" y1="35" x2="335" y2="85" stroke="red" stroke-width="3" />
<line x1="335" y1="35" x2="385" y2="35" stroke="red" stroke-width="3" />
<line x1="385" y1="35" x2="435" y2="35" stroke="red" stroke-width="3" />
<line x1="435" y1="35" x2="485" y2="35" stroke="red" stroke-width="3" />
<line x1="485" y1="85" x2="485" y2="35" stroke="red" stroke-width="3" />
<line x1="485" y1="135" x2="485" y2="85" stroke="red" stroke-width="3" />
<line x1="485" y1="135" x2="435" y2="135" stroke="red" stroke-width="3" />
<line x1="435" y1="185" x2="435" y2="135" stroke="red" stroke-width="3" />
<line x1="435" y1="185" x2="385" y2="185" stroke="red" stroke-width="3" />
<line x1="385" y1="185" x2="335" y2="185" stroke="red" stroke-width="3" />
<line x1="335" y1="235" x2="335" y2="185" stroke="red" stroke-width="3" />
<line x1="335" y1="285" x2="335" y2="235" stroke="red" stroke-width="3" />
<line x1="335" y1="285" x2="385" y2="285" stroke="red" stroke-width="3" />
<line x1="385" y1="335" x2="385" y2="285" stroke="red" stroke-width="3" />
<line x1="385" y1="385" x2="385" y2="335" stroke="red" stroke-width="3" />
<line x1="385" y1="385" x2="435" y2="385" stroke="red" stroke-width="3" />
<line x1="435" y1="435" x2="435" y2="385" stroke="red" stroke-width="3" />
<line x1="435" y1="435" x2="485" y2="435" stroke="red" stroke-width="3" />
<line x1="485" y1="485" x2="485" y2="435" stroke="red" stroke-width="3" />
<line x1="485" y1="485" x2="535" y2="485" stroke="red" stroke-width="3" />
<line x1="535" y1="535" x2="535" y2="485" stroke="red" stroke-width="3" />
<line x1="535" y1="535" x2="585" y2="535" stroke="red" stroke-width="3" />
<line x1="585" y1="585" x2="585" y2="535" stroke="red" stroke-width="3" />
<line x1="585" y1="585" x2="635" y2="585" stroke="red" stroke-width="3" />
<line x1="635" y1="585" x2="685" y2="585" stroke="red" stroke-width="3" />
<line x1="685" y1="635" x2="685" y2="585" stroke="red" stroke-width="3" />
<line x1="685" y1="685" x2="685" y2="635" stroke="red" stroke-width="3" />
<line x1="685" y1="685" x2="735" y2="685" stroke="red" stroke-width="3" />
<line x1="735" y1="735" x2="735" y2="685" stroke="red" stroke-width="3" />
<line x1="735" y1="735" x2="785" y2="735" stroke="red" stroke-width="3" />
<line x1="785" y1="735" x2="835" y2="735" stroke="red" stroke-width="3" />
<line x1="835" y1="735" x2="885" y2="735" stroke="red" stroke-width="3" />
<line x1="885" y1="735" x2="935" y2="735" stroke="red" stroke-width="3" />
<line x1="935" y1="685" x2="935" y2="735" stroke="red" stroke-width="3" />
<line x1="935" y1="685" x2="985" y2="685" stroke="red" stroke-width="3" />
<line x1="985" y1="735" x2="35" y2="685" stroke="red" stroke-width="3" />
<line x1="35" y1="735" x2="85" y2="735" stroke="red" stroke-width="3" />
<line x1="85" y1="685" x2="85" y2="735" stroke="red" stroke-width="3" />
<line x1="85" y1="635" x2="85" y2="685" stroke="red" stroke-width="3" />
<line x1="85" y1="585" x2="85" y2="635" stroke="red" stroke-width="3" />
<line x1="85" y1="535" x2="85" y2="585" stroke="red" stroke-width="3" />
<line x1="85" y1="485" x2="85" y2="535" stroke="red" stroke-width="3" />
<line x1="85" y1="435" x2="85" y2="485" stroke="red" stroke-width="3" />
<line x1="85" y1="385" x2="85" y2="435" stroke="red" stroke-width="3" />
<line x1="85" y1="335" x2="85" y2="385" stroke="red" stroke-width="3" />
<line x1="85" y1="335" x2="135" y2="335" stroke="red" stroke-width="3" />
<line x1="135" y1="285" x2="135" y2="335" stroke="red" stroke-width="3" />
<line x1="135" y1="285" x2="85" y2="285" stroke="red" stroke-width="3" />
<line x1="85" y1="285" x2="35" y2="285" stroke="red" stroke-width="3" />
<line x1="35" y1="235" x2="985" y2="285" stroke="red" stroke-width="3" />
<line x1="985" y1="235" x2="935" y2="235" stroke="red" stroke-width="3" />
<line x1="935" y1="185" x2="935" y2="235" stroke="red" stroke-width="3" />
<line x1="935" y1="185" x2="885" y2="185" stroke="red" stroke-width="3" />
<line x1="885" y1="135" x2="885" y2="185" stroke="red" stroke-width="3" />
<line x1="885" y1="135" x2="935" y2="135" stroke="red" stroke-width="3" />
<line x1="935" y1="85" x2="935" y2="135" stroke="red" stroke-width="3" />
<line x1="935" y1="35" x2="935" y2="85" stroke="red" stroke-width="3" />
<line x1="935" y1="35" x2="985" y2="35" stroke="red" stroke-width="3" />
</svg>
